<svg xmlns="http://www.w3.org/2000/svg" xmlns:xlink="http://www.w3.org/1999/xlink" preserveAspectRatio="xMidYMid" width="95.624" height="95.812" viewBox="0 0 47.812 47.906">
  <defs>
    <style>
      .cls-1 {
        fill: #1b1b1b;
        fill-rule: evenodd;
      }
    </style>
  </defs>
  <path d="M33.276,15.969 L40.833,15.969 C41.384,15.969 41.829,16.416 41.829,16.967 C41.829,17.518 41.457,17.906 40.906,17.906 L31.176,17.906 C31.076,17.938 30.975,17.965 30.871,17.965 C30.616,17.965 30.361,17.868 30.167,17.673 C29.931,17.436 29.856,17.114 29.906,16.807 L29.906,6.906 C29.906,6.355 30.320,5.989 30.871,5.989 C31.422,5.989 31.867,6.436 31.867,6.987 L31.867,14.558 L46.105,0.293 C46.494,-0.097 47.125,-0.097 47.514,0.293 C47.903,0.683 47.903,1.314 47.514,1.704 L33.276,15.969 ZM17.924,40.921 C17.924,41.472 17.478,41.919 16.927,41.919 C16.377,41.919 15.931,41.472 15.931,40.921 L15.931,33.349 L1.693,47.615 C1.498,47.809 1.244,47.907 0.989,47.907 C0.734,47.907 0.479,47.809 0.284,47.615 C-0.105,47.225 -0.105,46.593 0.284,46.203 L14.523,31.938 L6.965,31.938 C6.415,31.938 5.969,31.491 5.969,30.940 C5.969,30.389 6.415,29.942 6.965,29.942 L16.927,29.942 C17.057,29.942 17.186,29.969 17.308,30.019 C17.552,30.120 17.746,30.315 17.847,30.559 C17.897,30.681 17.924,30.810 17.924,30.940 L17.924,40.921 ZM16.927,17.965 C16.824,17.965 16.722,17.938 16.623,17.906 L6.906,17.906 C6.355,17.906 5.969,17.518 5.969,16.967 C5.969,16.416 6.415,15.969 6.965,15.969 L14.523,15.969 L0.284,1.704 C-0.105,1.314 -0.105,0.683 0.284,0.293 C0.673,-0.097 1.304,-0.097 1.693,0.293 L15.931,14.558 L15.931,6.987 C15.931,6.436 16.377,5.989 16.927,5.989 C17.478,5.989 17.924,6.436 17.924,6.987 L17.924,16.967 C17.924,17.223 17.826,17.478 17.632,17.673 C17.437,17.868 17.182,17.965 16.927,17.965 ZM30.493,30.017 C30.614,29.968 30.742,29.942 30.871,29.942 L40.833,29.942 C41.384,29.942 41.829,30.389 41.829,30.940 C41.829,31.491 41.384,31.938 40.833,31.938 L33.276,31.938 L47.514,46.203 C47.903,46.593 47.903,47.225 47.514,47.615 C47.319,47.809 47.065,47.907 46.810,47.907 C46.555,47.907 46.300,47.809 46.105,47.615 L31.867,33.349 L31.868,40.921 C31.868,41.472 31.423,41.919 30.872,41.919 C30.322,41.919 29.906,41.457 29.906,40.906 L29.906,31.100 C29.856,30.794 29.931,30.471 30.167,30.234 C30.261,30.140 30.372,30.067 30.493,30.017 Z" class="cls-1"/>
</svg>
