<svg xmlns="http://www.w3.org/2000/svg" xmlns:xlink="http://www.w3.org/1999/xlink" preserveAspectRatio="xMidYMid" width="95.062" height="83.876" viewBox="0 0 47.531 41.938">
  <defs>
    <style>
      .cls-1 {
        fill: #1b1b1b;
        fill-rule: evenodd;
      }
    </style>
  </defs>
  <path d="M47.195,18.739 L27.367,35.712 C27.184,35.868 26.956,35.950 26.725,35.950 C26.584,35.950 26.443,35.919 26.309,35.858 C25.959,35.694 25.562,35.327 25.562,34.938 L25.562,24.990 C2.373,25.476 2.066,40.299 2.065,40.940 C2.064,41.480 1.637,41.923 1.101,41.938 C1.092,41.939 1.082,41.939 1.073,41.939 C0.549,41.939 0.113,41.528 0.083,40.999 C-0.473,31.168 1.872,23.537 7.053,18.316 C13.510,11.811 22.356,11.032 25.562,10.977 L25.562,0.938 C25.562,0.549 25.959,0.262 26.309,0.098 C26.660,-0.064 27.072,-0.009 27.367,0.244 L47.195,17.217 C47.416,17.407 47.544,17.685 47.544,17.978 C47.544,18.271 47.416,18.549 47.195,18.739 ZM27.562,2.938 L27.562,11.491 C27.658,11.655 27.724,11.838 27.713,12.043 C27.687,12.527 27.307,12.885 26.853,12.955 C26.808,12.963 26.773,12.986 26.723,12.986 C26.714,12.986 26.705,12.980 26.696,12.980 C26.686,12.980 26.678,12.985 26.668,12.984 C26.562,12.980 15.648,12.469 8.443,19.741 C5.007,23.209 2.932,27.886 2.243,33.696 C2.928,32.497 3.830,31.253 5.017,30.051 C9.662,25.353 16.965,22.970 26.723,22.970 C27.271,22.970 27.715,23.417 27.715,23.969 C27.715,24.155 27.650,24.320 27.562,24.469 L27.562,32.938 L45.022,17.978 L27.562,2.938 Z" class="cls-1"/>
</svg>
