<svg xmlns="http://www.w3.org/2000/svg" xmlns:xlink="http://www.w3.org/1999/xlink" preserveAspectRatio="xMidYMid" width="95.124" height="83.876" viewBox="0 0 47.562 41.938">
  <defs>
    <style>
      .cls-1 {
        fill: #1b1b1b;
        fill-rule: evenodd;
      }
    </style>
  </defs>
  <path d="M47.458,40.998 C47.428,41.528 46.992,41.940 46.469,41.940 C46.459,41.940 46.448,41.940 46.438,41.939 C45.900,41.922 45.475,41.478 45.477,40.937 C45.476,40.299 45.169,25.498 22.031,24.991 L22.031,34.938 C22.031,35.327 21.583,35.694 21.232,35.857 C21.099,35.919 20.958,35.949 20.816,35.949 C20.585,35.949 20.357,35.868 20.174,35.711 L0.347,18.739 C0.125,18.549 -0.002,18.271 -0.002,17.978 C-0.002,17.685 0.125,17.408 0.347,17.218 L20.174,0.245 C20.469,-0.007 20.883,-0.064 21.232,0.100 C21.583,0.263 22.031,0.549 22.031,0.938 L22.031,10.979 C25.284,11.043 34.070,11.850 40.488,18.317 C45.670,23.537 48.015,31.168 47.458,40.998 ZM39.099,19.741 C31.891,12.467 20.986,12.980 20.873,12.985 C20.864,12.986 20.855,12.981 20.846,12.981 C20.837,12.981 20.827,12.986 20.818,12.986 C20.780,12.986 20.754,12.967 20.719,12.962 C20.252,12.911 19.857,12.539 19.829,12.044 C19.815,11.803 19.899,11.585 20.031,11.404 L20.031,2.938 L2.520,17.978 L20.031,32.938 L20.031,24.546 C19.911,24.381 19.827,24.188 19.827,23.969 C19.827,23.417 20.271,22.970 20.818,22.970 C30.576,22.970 37.879,25.353 42.524,30.051 C43.712,31.253 44.613,32.496 45.298,33.696 C44.609,27.886 42.535,23.210 39.099,19.741 Z" class="cls-1"/>
</svg>
