<svg xmlns="http://www.w3.org/2000/svg" xmlns:xlink="http://www.w3.org/1999/xlink" preserveAspectRatio="xMidYMid" width="80" height="96" viewBox="0 0 40 48">
  <defs>
    <style>
      .cls-1 {
        fill: #1b1b1b;
        fill-rule: evenodd;
      }
    </style>
  </defs>
  <path d="M38.000,48.000 L2.000,48.000 C0.897,48.000 0.000,47.103 0.000,46.000 L0.000,10.000 C0.000,8.897 0.897,8.000 2.000,8.000 L13.000,8.000 L13.000,4.000 C13.000,1.794 14.794,0.000 17.000,0.000 L23.000,0.000 C25.206,0.000 27.000,1.794 27.000,4.000 L27.000,8.000 L38.000,8.000 C39.103,8.000 40.000,8.897 40.000,10.000 L40.000,46.000 C40.000,47.103 39.103,48.000 38.000,48.000 ZM25.000,4.000 C25.000,2.897 24.103,2.000 23.000,2.000 L17.000,2.000 C15.897,2.000 15.000,2.897 15.000,4.000 L15.000,8.000 L25.000,8.000 L25.000,4.000 ZM27.000,10.000 L27.000,13.000 C27.000,13.552 26.552,14.000 26.000,14.000 C25.448,14.000 25.000,13.552 25.000,13.000 L25.000,10.000 L15.000,10.000 L15.000,13.000 C15.000,13.552 14.552,14.000 14.000,14.000 C13.448,14.000 13.000,13.552 13.000,13.000 L13.000,10.000 L2.000,10.000 L2.000,46.000 L37.997,46.000 L38.000,10.000 L27.000,10.000 Z" class="cls-1"/>
</svg>
