<svg xmlns="http://www.w3.org/2000/svg" xmlns:xlink="http://www.w3.org/1999/xlink" preserveAspectRatio="xMidYMid" width="92" height="96" viewBox="0 0 46 48">
  <defs>
    <style>
      .cls-1 {
        fill: #1b1b1b;
        fill-rule: evenodd;
      }
    </style>
  </defs>
  <path d="M45.000,48.000 L35.000,48.000 C34.447,48.000 34.000,47.552 34.000,47.000 L34.000,1.000 C34.000,0.448 34.447,-0.000 35.000,-0.000 L45.000,-0.000 C45.553,-0.000 46.000,0.448 46.000,1.000 L46.000,47.000 C46.000,47.552 45.553,48.000 45.000,48.000 ZM44.000,2.000 L36.000,2.000 L36.000,46.000 L44.000,46.000 L44.000,2.000 ZM28.000,48.000 L18.000,48.000 C17.448,48.000 17.000,47.552 17.000,47.000 L17.000,25.000 C17.000,24.448 17.448,24.000 18.000,24.000 L28.000,24.000 C28.553,24.000 29.000,24.448 29.000,25.000 L29.000,47.000 C29.000,47.552 28.553,48.000 28.000,48.000 ZM27.000,26.000 L19.000,26.000 L19.000,46.000 L27.000,46.000 L27.000,26.000 ZM11.000,48.000 L1.000,48.000 C0.448,48.000 -0.000,47.552 -0.000,47.000 L-0.000,17.000 C-0.000,16.448 0.448,16.000 1.000,16.000 L11.000,16.000 C11.552,16.000 12.000,16.448 12.000,17.000 L12.000,47.000 C12.000,47.552 11.552,48.000 11.000,48.000 ZM10.000,18.000 L2.000,18.000 L2.000,46.000 L10.000,46.000 L10.000,18.000 Z" class="cls-1"/>
</svg>
