<svg xmlns="http://www.w3.org/2000/svg" xmlns:xlink="http://www.w3.org/1999/xlink" preserveAspectRatio="xMidYMid" width="95.938" height="96" viewBox="0 0 47.969 48">
  <defs>
    <style>
      .cls-1 {
        fill: #1b1b1b;
        fill-rule: evenodd;
      }
    </style>
  </defs>
  <path d="M47.914,15.277 L41.867,36.277 C41.744,36.705 41.352,37.000 40.907,37.000 L20.834,37.000 C20.834,37.000 20.834,37.000 20.834,37.000 C20.834,37.000 20.833,37.000 20.833,37.000 C20.709,37.000 20.591,36.972 20.479,36.928 C20.441,36.914 20.409,36.892 20.373,36.873 C20.303,36.836 20.238,36.794 20.178,36.742 C20.145,36.712 20.116,36.681 20.087,36.647 C20.038,36.590 19.997,36.529 19.962,36.461 C19.940,36.419 19.919,36.380 19.903,36.335 C19.894,36.312 19.879,36.294 19.872,36.271 L10.596,3.196 C10.420,2.570 9.668,2.000 9.019,2.000 L0.998,2.000 C0.445,2.000 -0.001,1.553 -0.001,1.000 C-0.001,0.447 0.445,0.000 0.998,0.000 L9.019,0.000 C10.564,0.000 12.101,1.166 12.520,2.655 L15.702,14.000 L46.954,14.000 C47.268,14.000 47.563,14.148 47.752,14.398 C47.941,14.649 48.001,14.975 47.914,15.277 ZM16.263,16.000 L21.591,35.000 L40.154,35.000 L45.626,16.000 L16.263,16.000 ZM23.476,41.000 C25.404,41.000 26.973,42.570 26.973,44.500 C26.973,46.430 25.404,48.000 23.476,48.000 C21.548,48.000 19.979,46.430 19.979,44.500 C19.979,42.570 21.548,41.000 23.476,41.000 ZM23.476,46.000 C24.302,46.000 24.975,45.327 24.975,44.500 C24.975,43.673 24.302,43.000 23.476,43.000 C22.650,43.000 21.978,43.673 21.978,44.500 C21.978,45.327 22.650,46.000 23.476,46.000 ZM38.462,41.000 C40.390,41.000 41.958,42.570 41.958,44.500 C41.958,46.430 40.390,48.000 38.462,48.000 C36.534,48.000 34.965,46.430 34.965,44.500 C34.965,42.570 36.534,41.000 38.462,41.000 ZM38.462,46.000 C39.288,46.000 39.960,45.327 39.960,44.500 C39.960,43.673 39.288,43.000 38.462,43.000 C37.635,43.000 36.963,43.673 36.963,44.500 C36.963,45.327 37.635,46.000 38.462,46.000 Z" class="cls-1"/>
</svg>
