<svg xmlns="http://www.w3.org/2000/svg" xmlns:xlink="http://www.w3.org/1999/xlink" preserveAspectRatio="xMidYMid" width="96" height="88" viewBox="0 0 48 44">
  <defs>
    <style>
      .cls-1 {
        fill: #1b1b1b;
        fill-rule: evenodd;
      }
    </style>
  </defs>
  <path d="M45.467,44.000 L2.533,44.000 C1.136,44.000 0.000,42.849 0.000,41.435 L0.000,10.565 C0.000,9.151 1.136,8.000 2.533,8.000 L15.000,8.000 L15.000,4.200 C15.000,1.884 16.884,0.000 19.200,0.000 L28.800,0.000 C31.116,0.000 33.000,1.884 33.000,4.200 L33.000,8.000 L45.467,8.000 C46.864,8.000 48.000,9.151 48.000,10.565 L48.000,41.435 C48.000,42.849 46.864,44.000 45.467,44.000 ZM31.000,4.200 C31.000,2.987 30.013,2.000 28.800,2.000 L19.200,2.000 C17.987,2.000 17.000,2.987 17.000,4.200 L17.000,8.000 L31.000,8.000 L31.000,4.200 ZM46.000,10.565 C46.000,10.259 45.756,10.000 45.467,10.000 L2.533,10.000 C2.239,10.000 2.000,10.253 2.000,10.565 L2.000,21.000 L20.000,21.000 L20.000,20.857 C20.000,18.730 21.794,17.000 24.000,17.000 C25.048,17.000 26.043,17.396 26.803,18.117 C27.576,18.855 28.000,19.827 28.000,20.857 L28.000,21.000 L46.000,21.000 L46.000,10.565 ZM22.000,20.857 L22.000,25.144 C22.000,25.622 22.204,26.080 22.575,26.434 C22.957,26.799 23.463,27.000 24.000,27.000 C25.103,27.000 26.000,26.167 26.000,25.144 L26.000,20.857 C26.000,20.379 25.796,19.920 25.425,19.566 C25.041,19.202 24.534,19.000 24.000,19.000 C22.897,19.000 22.000,19.833 22.000,20.857 ZM46.000,23.000 L28.000,23.000 L28.000,25.144 C28.000,27.270 26.206,29.000 24.000,29.000 C22.947,29.000 21.950,28.602 21.194,27.880 C20.424,27.145 20.000,26.173 20.000,25.144 L20.000,23.000 L2.000,23.000 L2.000,41.435 C2.000,41.747 2.239,42.000 2.533,42.000 L45.467,42.000 C45.756,42.000 46.000,41.741 46.000,41.435 L46.000,23.000 Z" class="cls-1"/>
</svg>
