<svg xmlns="http://www.w3.org/2000/svg" xmlns:xlink="http://www.w3.org/1999/xlink" preserveAspectRatio="xMidYMid" width="96" height="88" viewBox="0 0 48 44">
  <defs>
    <style>
      .cls-1 {
        fill: #2CC9D7;
        fill-rule: evenodd;
      }
    </style>
  </defs>
  <path d="M41.004,35.500 C41.453,39.800 43.712,42.296 43.735,42.322 C44.006,42.616 44.076,43.043 43.913,43.407 C43.753,43.768 43.395,44.000 43.000,44.000 C42.996,44.000 42.992,44.000 42.988,44.000 C42.726,43.997 36.666,43.868 32.525,38.969 L28.997,38.969 L28.996,38.969 C24.802,38.968 20.826,37.878 17.499,35.816 C17.029,35.525 16.885,34.909 17.176,34.439 C17.466,33.970 18.082,33.825 18.552,34.116 C21.564,35.982 25.177,36.969 29.000,36.969 L33.000,36.969 C33.307,36.969 33.597,37.110 33.786,37.352 C35.957,40.116 38.918,41.238 40.895,41.692 C40.067,40.214 39.140,37.950 38.958,35.030 C38.935,34.654 39.124,34.297 39.448,34.106 C43.673,31.618 46.000,27.845 46.000,23.483 C46.000,21.040 44.108,17.510 41.293,14.697 C40.902,14.306 40.902,13.673 41.293,13.282 C41.684,12.892 42.316,12.892 42.707,13.282 C45.922,16.495 48.000,20.499 48.000,23.483 C48.000,28.390 45.521,32.635 41.004,35.500 ZM19.004,30.976 L19.003,30.976 L15.475,30.976 C11.334,35.874 5.274,36.004 5.012,36.007 C5.008,36.007 5.004,36.007 5.000,36.007 C4.605,36.007 4.247,35.775 4.087,35.414 C3.925,35.050 3.994,34.625 4.263,34.332 C4.286,34.306 6.547,31.773 6.996,27.506 C2.479,24.642 0.000,20.397 0.000,15.490 C0.000,6.949 8.523,-0.000 19.000,-0.000 C29.477,-0.000 38.000,6.949 38.000,15.490 C38.000,24.028 29.479,30.974 19.004,30.976 ZM19.000,2.000 C9.626,2.000 2.000,8.051 2.000,15.490 C2.000,19.852 4.326,23.624 8.552,26.112 C8.876,26.304 9.065,26.661 9.042,27.037 C8.860,29.956 7.933,32.220 7.105,33.699 C9.082,33.245 12.043,32.123 14.214,29.358 C14.403,29.117 14.693,28.976 15.000,28.976 L19.000,28.976 C28.374,28.976 36.000,22.926 36.000,15.490 C36.000,8.051 28.374,2.000 19.000,2.000 Z" class="cls-1"/>
</svg>
