<svg xmlns="http://www.w3.org/2000/svg" xmlns:xlink="http://www.w3.org/1999/xlink" preserveAspectRatio="xMidYMid" width="60" height="92" viewBox="0 0 30 46">
  <defs>
    <style>
      .cls-1 {
        fill: #1b1b1b;
        fill-rule: evenodd;
      }
    </style>
  </defs>
  <path d="M22.901,28.745 C22.166,29.408 21.999,30.839 21.999,31.288 L21.999,40.570 C21.999,40.622 21.995,40.672 21.987,40.723 C21.705,42.548 19.882,46.000 15.000,46.000 C10.119,46.000 8.295,42.548 8.013,40.723 C8.005,40.673 8.001,40.622 8.001,40.570 L8.001,31.291 C7.997,30.814 7.825,29.430 7.085,28.733 C2.453,25.238 0.000,20.680 0.000,15.543 C0.000,6.973 6.729,0.000 15.000,0.000 C23.271,0.000 30.000,6.973 30.000,15.543 C30.000,20.686 27.543,25.249 22.901,28.745 ZM15.000,44.000 C19.084,44.000 19.880,41.069 19.999,40.480 L19.999,36.064 C18.335,36.751 16.708,37.010 15.226,37.010 C13.053,37.010 11.212,36.478 10.001,36.013 L10.001,40.481 C10.116,41.054 10.906,44.000 15.000,44.000 ZM15.000,2.000 C7.831,2.000 2.000,8.075 2.000,15.543 C2.000,21.246 5.461,25.029 8.365,27.199 C8.381,27.211 8.388,27.228 8.403,27.241 C8.418,27.253 8.436,27.257 8.451,27.271 C9.957,28.682 10.001,31.024 10.001,31.287 C10.001,31.287 10.001,31.287 10.001,31.287 C10.001,31.287 10.001,31.287 10.001,31.287 L10.001,33.851 C11.424,34.512 15.655,36.070 19.999,33.856 L19.999,31.287 C19.999,31.287 19.999,31.287 19.999,31.287 C19.999,31.287 19.999,31.287 19.999,31.287 C19.999,31.018 20.044,28.624 21.566,27.256 C21.578,27.246 21.593,27.243 21.604,27.234 C21.617,27.224 21.623,27.209 21.636,27.199 C24.539,25.029 28.000,21.247 28.000,15.543 C28.000,8.075 22.168,2.000 15.000,2.000 Z" class="cls-1"/>
</svg>
