<svg xmlns="http://www.w3.org/2000/svg" xmlns:xlink="http://www.w3.org/1999/xlink" preserveAspectRatio="xMidYMid" width="96" height="96" viewBox="0 0 48 48">
  <defs>
    <style>
      .cls-1 {
        fill: #1b1b1b;
        fill-rule: evenodd;
      }
    </style>
  </defs>
  <path d="M45.467,48.000 L2.533,48.000 C1.136,48.000 0.000,46.863 0.000,45.467 L0.000,2.533 C0.000,1.137 1.136,-0.000 2.533,-0.000 L45.467,-0.000 C46.864,-0.000 48.000,1.137 48.000,2.533 L48.000,45.467 C48.000,46.863 46.864,48.000 45.467,48.000 ZM46.000,2.533 C46.000,2.244 45.756,2.000 45.467,2.000 L2.533,2.000 C2.244,2.000 2.000,2.244 2.000,2.533 L2.000,45.467 C2.000,45.756 2.244,46.000 2.533,46.000 L45.467,46.000 C45.756,46.000 46.000,45.756 46.000,45.467 L46.000,2.533 ZM38.045,37.000 L28.045,37.000 C27.493,37.000 27.045,36.553 27.045,36.000 C27.045,35.447 27.493,35.000 28.045,35.000 L38.045,35.000 C38.597,35.000 39.045,35.447 39.045,36.000 C39.045,36.553 38.597,37.000 38.045,37.000 ZM38.000,31.000 L28.000,31.000 C27.448,31.000 27.000,30.553 27.000,30.000 C27.000,29.447 27.448,29.000 28.000,29.000 L38.000,29.000 C38.552,29.000 39.000,29.447 39.000,30.000 C39.000,30.553 38.552,31.000 38.000,31.000 ZM38.000,16.000 L28.000,16.000 C27.448,16.000 27.000,15.553 27.000,15.000 C27.000,14.447 27.448,14.000 28.000,14.000 L38.000,14.000 C38.552,14.000 39.000,14.447 39.000,15.000 C39.000,15.553 38.552,16.000 38.000,16.000 ZM20.707,38.707 C20.512,38.902 20.256,39.000 20.000,39.000 C19.744,39.000 19.488,38.902 19.293,38.707 L15.000,34.414 L10.707,38.707 C10.512,38.902 10.256,39.000 10.000,39.000 C9.744,39.000 9.488,38.902 9.293,38.707 C8.902,38.316 8.902,37.684 9.293,37.293 L13.586,33.000 L9.293,28.707 C8.902,28.316 8.902,27.684 9.293,27.293 C9.684,26.902 10.316,26.902 10.707,27.293 L15.000,31.586 L19.293,27.293 C19.684,26.902 20.316,26.902 20.707,27.293 C21.098,27.684 21.098,28.316 20.707,28.707 L16.414,33.000 L20.707,37.293 C21.098,37.684 21.098,38.316 20.707,38.707 ZM20.000,16.000 L16.000,16.000 L16.000,20.000 C16.000,20.553 15.552,21.000 15.000,21.000 C14.448,21.000 14.000,20.553 14.000,20.000 L14.000,16.000 L10.000,16.000 C9.448,16.000 9.000,15.553 9.000,15.000 C9.000,14.447 9.448,14.000 10.000,14.000 L14.000,14.000 L14.000,10.000 C14.000,9.447 14.448,9.000 15.000,9.000 C15.552,9.000 16.000,9.447 16.000,10.000 L16.000,14.000 L20.000,14.000 C20.552,14.000 21.000,14.447 21.000,15.000 C21.000,15.553 20.552,16.000 20.000,16.000 Z" class="cls-1"/>
</svg>
