<svg xmlns="http://www.w3.org/2000/svg" xmlns:xlink="http://www.w3.org/1999/xlink" preserveAspectRatio="xMidYMid" width="96.376" height="96" viewBox="0 0 48.188 48">
  <defs>
    <style>
      .cls-1 {
        fill: #1b1b1b;
        fill-rule: evenodd;
      }
    </style>
  </defs>
  <path d="M9.054,48.000 C8.819,48.000 8.589,47.917 8.408,47.765 L1.193,41.705 C1.169,41.684 1.103,41.619 1.080,41.596 C-0.781,39.742 -0.203,35.958 2.762,30.665 C5.484,25.803 9.909,20.211 15.222,14.920 C24.180,5.996 33.627,0.000 38.729,0.000 C40.018,0.000 41.040,0.367 41.767,1.092 C41.787,1.111 41.847,1.171 41.865,1.192 L47.951,8.331 C48.126,8.535 48.211,8.800 48.187,9.068 C48.162,9.335 48.032,9.582 47.823,9.752 L36.782,18.773 C36.432,19.059 35.931,19.076 35.563,18.813 L29.228,14.305 L14.372,29.107 L18.896,35.418 C19.159,35.785 19.143,36.282 18.856,36.632 L9.832,47.633 C9.662,47.840 9.415,47.971 9.147,47.996 C9.116,47.999 9.085,48.000 9.054,48.000 ZM38.729,2.000 C34.196,2.000 25.113,7.894 16.641,16.334 C11.456,21.499 7.149,26.934 4.514,31.640 C1.719,36.632 1.645,39.329 2.508,40.190 L8.923,45.581 L16.816,35.958 L12.243,29.580 C11.959,29.182 12.004,28.637 12.351,28.292 L28.409,12.292 C28.756,11.945 29.304,11.901 29.702,12.185 L36.104,16.740 L45.761,8.850 L40.368,2.525 C39.975,2.159 39.441,2.000 38.729,2.000 Z" class="cls-1"/>
</svg>
