<svg xmlns="http://www.w3.org/2000/svg" xmlns:xlink="http://www.w3.org/1999/xlink" preserveAspectRatio="xMidYMid" width="95.812" height="95.812" viewBox="0 0 47.906 47.906">
  <defs>
    <style>
      .cls-1 {
        fill: #1b1b1b;
        fill-rule: evenodd;
      }
    </style>
  </defs>
  <path d="M47.611,1.703 L33.346,15.968 L40.917,15.968 C41.468,15.968 41.915,16.415 41.915,16.966 C41.915,17.518 41.551,17.906 41.000,17.906 L31.236,17.906 C31.138,17.937 31.038,17.964 30.936,17.964 C30.681,17.964 30.425,17.867 30.230,17.672 C29.953,17.394 29.882,16.996 30.000,16.648 L30.000,6.906 C30.000,6.354 30.385,5.988 30.936,5.988 C31.487,5.988 31.934,6.434 31.934,6.986 L31.934,14.557 L46.200,0.292 C46.590,-0.098 47.221,-0.098 47.611,0.292 C48.001,0.682 48.001,1.313 47.611,1.703 ZM35.347,29.129 C35.714,28.867 36.209,28.882 36.558,29.168 L47.537,38.141 C47.744,38.310 47.875,38.555 47.899,38.821 C47.924,39.088 47.841,39.352 47.669,39.557 L41.619,46.730 C41.603,46.749 41.545,46.810 41.527,46.828 C40.809,47.546 39.810,47.906 38.550,47.906 C33.441,47.906 23.932,41.828 14.887,32.781 C5.145,23.037 -3.003,10.476 1.086,6.385 C1.105,6.366 1.164,6.307 1.185,6.290 L8.311,0.237 C8.515,0.064 8.779,-0.020 9.047,0.003 C9.313,0.028 9.559,0.157 9.729,0.365 L18.733,11.343 C19.019,11.691 19.035,12.189 18.774,12.556 L14.274,18.854 L29.048,33.628 L35.347,29.129 ZM28.234,35.637 L12.265,19.668 C11.920,19.323 11.875,18.779 12.158,18.382 L16.705,12.018 L8.829,2.416 L2.515,7.778 C0.245,10.222 5.349,20.418 16.299,31.370 C25.842,40.916 34.716,45.910 38.550,45.910 C39.261,45.910 39.786,45.747 40.108,45.424 L45.489,39.045 L35.886,31.196 L29.520,35.743 C29.123,36.027 28.578,35.981 28.234,35.637 Z" class="cls-1"/>
</svg>
