<svg xmlns="http://www.w3.org/2000/svg" xmlns:xlink="http://www.w3.org/1999/xlink" preserveAspectRatio="xMidYMid" width="95.812" height="95.812" viewBox="0 0 47.906 47.906">
  <defs>
    <style>
      .cls-1 {
        fill: #1b1b1b;
        fill-rule: evenodd;
      }
    </style>
  </defs>
  <path d="M47.828,0.616 C47.878,0.738 47.905,0.868 47.905,0.998 L47.905,10.978 C47.905,11.530 47.458,11.976 46.907,11.976 C46.355,11.976 46.000,11.458 46.000,10.906 L46.000,3.315 L31.643,17.672 C31.448,17.867 31.193,17.964 30.937,17.964 C30.682,17.964 30.426,17.867 30.232,17.672 C29.842,17.282 29.842,16.650 30.232,16.261 L44.587,1.906 L37.000,1.906 C36.449,1.906 35.928,1.549 35.928,0.997 C35.928,0.446 36.375,-0.001 36.926,-0.001 L46.906,-0.001 C47.036,-0.001 47.166,0.026 47.288,0.076 C47.532,0.177 47.727,0.372 47.828,0.616 ZM35.348,29.129 C35.715,28.867 36.211,28.882 36.559,29.168 L47.538,38.141 C47.745,38.310 47.876,38.555 47.900,38.821 C47.925,39.088 47.842,39.352 47.670,39.557 L41.620,46.730 C41.604,46.749 41.546,46.810 41.529,46.828 C40.810,47.546 39.811,47.906 38.552,47.906 C33.442,47.906 23.932,41.828 14.888,32.781 C5.146,23.037 -3.002,10.475 1.087,6.385 C1.106,6.366 1.165,6.307 1.186,6.290 L8.312,0.237 C8.516,0.064 8.780,-0.020 9.048,0.003 C9.314,0.028 9.560,0.157 9.730,0.365 L18.734,11.343 C19.020,11.691 19.036,12.189 18.775,12.556 L14.275,18.854 L29.049,33.628 L35.348,29.129 ZM28.235,35.637 L12.266,19.668 C11.921,19.323 11.876,18.779 12.159,18.382 L16.706,12.018 L8.830,2.416 L2.516,7.778 C0.246,10.222 5.350,20.418 16.299,31.370 C25.843,40.916 34.718,45.910 38.552,45.910 C39.263,45.910 39.787,45.747 40.109,45.424 L45.490,39.045 L35.887,31.196 L29.521,35.743 C29.124,36.027 28.579,35.981 28.235,35.637 Z" class="cls-1"/>
</svg>
