<svg xmlns="http://www.w3.org/2000/svg" xmlns:xlink="http://www.w3.org/1999/xlink" preserveAspectRatio="xMidYMid" width="96" height="96" viewBox="0 0 48 48">
  <defs>
    <style>
      .cls-1 {
        fill: #1b1b1b;
        fill-rule: evenodd;
      }
    </style>
  </defs>
  <path d="M23.999,48.000 C10.766,48.000 0.000,37.234 0.000,24.001 C0.000,10.767 10.766,0.000 23.999,0.000 C37.233,0.000 48.000,10.767 48.000,24.001 C48.000,37.234 37.233,48.000 23.999,48.000 ZM23.999,2.000 C11.869,2.000 2.000,11.870 2.000,24.001 C2.000,36.131 11.869,46.000 23.999,46.000 C36.130,46.000 46.000,36.131 46.000,24.001 C46.000,11.870 36.130,2.000 23.999,2.000 ZM28.962,28.475 C28.862,28.691 28.688,28.865 28.473,28.964 L13.417,35.910 C13.283,35.971 13.140,36.001 12.999,36.001 C12.738,36.001 12.482,35.900 12.291,35.708 C11.995,35.412 11.915,34.963 12.090,34.583 L19.036,19.527 C19.136,19.311 19.310,19.137 19.525,19.038 L34.579,12.092 C34.959,11.918 35.408,11.997 35.705,12.294 C36.002,12.589 36.081,13.039 35.906,13.419 L28.962,28.475 ZM15.043,32.957 L26.333,27.749 L20.252,21.667 L15.043,32.957 ZM21.666,20.253 L27.747,26.334 L32.954,15.045 L21.666,20.253 Z" class="cls-1"/>
</svg>
