<svg xmlns="http://www.w3.org/2000/svg" xmlns:xlink="http://www.w3.org/1999/xlink" preserveAspectRatio="xMidYMid" width="96" height="96" viewBox="0 0 48 48">
  <defs>
    <style>
      .cls-1 {
        fill: #1b1b1b;
        fill-rule: evenodd;
      }
    </style>
  </defs>
  <path d="M44.000,19.899 L44.000,47.000 C44.000,47.553 43.553,48.000 43.000,48.000 C42.447,48.000 42.000,47.553 42.000,47.000 L42.000,19.899 C39.721,19.434 38.000,17.414 38.000,15.000 C38.000,12.586 39.721,10.566 42.000,10.101 L42.000,1.000 C42.000,0.447 42.447,0.000 43.000,0.000 C43.553,0.000 44.000,0.447 44.000,1.000 L44.000,10.101 C46.279,10.566 48.000,12.586 48.000,15.000 C48.000,17.414 46.279,19.434 44.000,19.899 ZM43.000,12.000 C41.346,12.000 40.000,13.346 40.000,15.000 C40.000,16.654 41.346,18.000 43.000,18.000 C44.654,18.000 46.000,16.654 46.000,15.000 C46.000,13.346 44.654,12.000 43.000,12.000 ZM25.000,37.899 L25.000,47.000 C25.000,47.553 24.553,48.000 24.000,48.000 C23.447,48.000 23.000,47.553 23.000,47.000 L23.000,37.899 C20.721,37.434 19.000,35.414 19.000,33.000 C19.000,30.586 20.721,28.566 23.000,28.101 L23.000,1.000 C23.000,0.447 23.447,0.000 24.000,0.000 C24.553,0.000 25.000,0.447 25.000,1.000 L25.000,28.101 C27.279,28.566 29.000,30.586 29.000,33.000 C29.000,35.414 27.279,37.434 25.000,37.899 ZM24.000,30.000 C22.346,30.000 21.000,31.346 21.000,33.000 C21.000,34.654 22.346,36.000 24.000,36.000 C25.654,36.000 27.000,34.654 27.000,33.000 C27.000,31.346 25.654,30.000 24.000,30.000 ZM6.000,28.899 L6.000,47.000 C6.000,47.553 5.553,48.000 5.000,48.000 C4.447,48.000 4.000,47.553 4.000,47.000 L4.000,28.899 C1.721,28.434 -0.000,26.414 -0.000,24.000 C-0.000,21.586 1.721,19.566 4.000,19.101 L4.000,1.000 C4.000,0.447 4.447,0.000 5.000,0.000 C5.553,0.000 6.000,0.447 6.000,1.000 L6.000,19.101 C8.279,19.566 10.000,21.586 10.000,24.000 C10.000,26.414 8.279,28.434 6.000,28.899 ZM5.000,21.000 C3.346,21.000 2.000,22.346 2.000,24.000 C2.000,25.654 3.346,27.000 5.000,27.000 C6.654,27.000 8.000,25.654 8.000,24.000 C8.000,22.346 6.654,21.000 5.000,21.000 Z" class="cls-1"/>
</svg>
