<svg xmlns="http://www.w3.org/2000/svg" xmlns:xlink="http://www.w3.org/1999/xlink" preserveAspectRatio="xMidYMid" width="95.752" height="96" viewBox="0 0 47.876 48">
  <defs>
    <style>
      .cls-1 {
        fill: #1b1b1b;
        fill-rule: evenodd;
      }
    </style>
  </defs>
  <path d="M47.544,15.793 L24.746,47.583 C24.745,47.585 24.743,47.586 24.742,47.587 C24.659,47.701 24.549,47.788 24.429,47.857 C24.400,47.874 24.372,47.888 24.342,47.902 C24.215,47.959 24.081,48.000 23.936,48.000 C23.790,48.000 23.656,47.959 23.529,47.902 C23.499,47.888 23.472,47.874 23.443,47.858 C23.322,47.788 23.212,47.701 23.130,47.587 C23.128,47.585 23.126,47.585 23.125,47.583 L0.325,15.790 C0.124,15.629 -0.005,15.390 -0.005,15.084 C-0.005,15.079 -0.003,15.074 -0.003,15.069 C-0.003,15.062 0.001,15.056 0.001,15.049 C0.005,14.901 0.040,14.760 0.096,14.626 C0.109,14.594 0.101,14.558 0.118,14.527 L7.765,0.639 C7.781,0.611 7.815,0.585 7.837,0.558 C7.955,0.388 8.113,0.244 8.324,0.173 C8.333,0.170 8.343,0.173 8.353,0.170 C8.559,0.070 8.775,0.000 8.938,0.000 L38.938,0.000 C39.101,0.000 39.317,0.070 39.522,0.170 C39.530,0.173 39.538,0.171 39.546,0.173 C39.756,0.243 39.912,0.387 40.031,0.555 C40.053,0.583 40.088,0.610 40.104,0.639 L47.753,14.527 C47.770,14.557 47.762,14.592 47.775,14.624 C47.831,14.758 47.866,14.900 47.871,15.049 C47.870,15.056 47.875,15.062 47.874,15.069 C47.874,15.074 47.877,15.079 47.877,15.084 C47.877,15.392 47.747,15.632 47.544,15.793 ZM44.940,16.000 L35.321,16.000 L26.966,41.065 L44.940,16.000 ZM23.936,2.744 L15.181,14.000 L32.691,14.000 L23.936,2.744 ZM23.936,43.848 L33.219,16.000 L14.651,16.000 L23.936,43.848 ZM20.905,41.064 L12.549,16.000 L2.932,16.000 L20.905,41.064 ZM8.293,3.233 L2.661,14.000 L11.882,14.000 L8.293,3.233 ZM9.984,2.000 L13.585,12.802 L21.988,2.000 L9.984,2.000 ZM25.884,2.000 L34.285,12.801 L37.886,2.000 L25.884,2.000 ZM39.579,3.226 L35.988,14.000 L45.211,14.000 L39.579,3.226 Z" class="cls-1"/>
</svg>
