<svg xmlns="http://www.w3.org/2000/svg" xmlns:xlink="http://www.w3.org/1999/xlink" preserveAspectRatio="xMidYMid" width="88" height="96" viewBox="0 0 44 48">
  <defs>
    <style>
      .cls-1 {
        fill: #2CC9D7;
        fill-rule: evenodd;
      }
    </style>
  </defs>
  <path d="M43.586,15.811 L31.142,24.811 C31.102,24.839 31.057,24.853 31.015,24.875 C30.978,24.894 30.945,24.915 30.906,24.929 C30.793,24.972 30.675,25.000 30.557,25.000 C30.556,25.000 30.556,25.000 30.556,25.000 C30.556,25.000 30.556,25.000 30.556,25.000 L21.000,25.000 L21.000,47.000 C21.000,47.553 20.553,48.000 20.000,48.000 C19.447,48.000 19.000,47.553 19.000,47.000 L19.000,25.000 L1.010,25.000 C0.457,25.000 0.000,24.543 0.000,23.990 L0.000,6.010 C0.000,5.457 0.457,5.000 1.010,5.000 L19.000,5.000 L19.000,1.000 C19.000,0.447 19.447,0.000 20.000,0.000 C20.553,0.000 21.000,0.447 21.000,1.000 L21.000,5.000 L30.556,5.000 C30.593,5.000 30.624,5.017 30.660,5.021 C30.728,5.028 30.793,5.040 30.860,5.061 C30.926,5.083 30.985,5.111 31.044,5.145 C31.075,5.163 31.111,5.168 31.142,5.190 L43.586,14.189 C43.846,14.378 44.000,14.679 44.000,15.000 C44.000,15.321 43.846,15.622 43.586,15.811 ZM30.232,7.000 L2.000,7.000 L2.000,23.000 L30.232,23.000 L41.294,15.000 L30.232,7.000 Z" class="cls-1"/>
</svg>
