<svg xmlns="http://www.w3.org/2000/svg" xmlns:xlink="http://www.w3.org/1999/xlink" preserveAspectRatio="xMidYMid" width="88" height="94" viewBox="0 0 44 47">
  <defs>
    <style>
      .cls-1 {
        fill: #1b1b1b;
        fill-rule: evenodd;
      }
    </style>
  </defs>
  <path d="M20.975,46.999 C20.875,46.999 20.771,46.993 20.668,46.977 C18.970,46.723 15.020,45.341 15.020,38.015 C15.020,34.738 15.933,30.961 16.473,29.012 L6.954,29.012 C3.300,29.012 1.030,27.275 1.030,24.479 C1.030,23.063 1.542,22.052 2.228,21.353 C1.195,20.797 -0.001,19.661 -0.001,17.382 C-0.001,15.435 0.942,14.244 2.179,13.604 C1.518,12.897 1.030,11.880 1.030,10.462 C1.030,8.318 2.146,7.074 3.548,6.468 C3.235,5.959 3.029,5.299 3.029,4.460 C3.029,0.690 6.058,0.000 12.022,0.000 L21.016,0.000 C24.375,0.000 26.776,0.908 28.895,1.708 C30.685,2.384 32.229,2.967 34.110,2.967 C37.080,2.967 40.015,3.001 40.015,3.001 C40.174,3.003 40.330,3.043 40.470,3.118 C40.832,3.308 44.001,5.209 44.001,13.005 C44.001,20.595 41.962,24.341 41.875,24.497 C41.734,24.751 41.489,24.931 41.205,24.990 C41.132,25.004 33.892,26.540 29.717,30.720 C25.770,34.671 23.377,40.925 23.054,45.060 C22.970,46.148 22.057,46.999 20.975,46.999 ZM4.826,15.001 C3.770,15.001 1.998,15.310 1.998,17.382 C1.998,18.475 2.385,19.184 3.216,19.612 C3.951,19.991 4.786,20.009 4.946,20.009 C5.474,20.009 5.951,20.419 5.985,20.947 C6.017,21.475 5.675,21.936 5.151,22.001 C4.803,22.051 3.029,22.407 3.029,24.479 C3.029,26.764 5.774,27.011 6.954,27.011 L17.810,27.011 C18.129,27.011 18.429,27.164 18.618,27.422 C18.805,27.681 18.859,28.014 18.761,28.318 C18.744,28.373 17.019,33.778 17.019,38.015 C17.019,42.137 18.420,44.618 20.964,44.998 L20.975,44.999 C21.009,44.999 21.056,44.963 21.061,44.905 C21.402,40.542 23.814,33.800 28.304,29.305 C32.293,25.311 38.509,23.577 40.309,23.142 C40.776,22.066 42.002,18.704 42.002,13.005 C42.002,7.418 40.211,5.455 39.682,4.998 C38.855,4.991 36.493,4.968 34.110,4.968 C31.865,4.968 30.080,4.294 28.189,3.580 C26.135,2.803 24.010,2.001 21.016,2.001 L12.022,2.001 C5.027,2.001 5.027,3.140 5.027,4.460 C5.027,5.841 6.027,5.996 6.141,6.009 C6.677,6.071 7.067,6.547 7.023,7.085 C6.979,7.623 6.553,8.049 5.977,8.002 C5.976,8.002 5.975,8.002 5.973,8.002 C5.045,8.002 3.029,8.245 3.029,10.462 C3.029,12.743 5.055,13.003 5.141,13.012 C5.681,13.074 6.072,13.556 6.023,14.099 C5.972,14.640 5.518,15.049 4.956,15.003 L4.826,15.001 Z" class="cls-1"/>
</svg>
