<svg xmlns="http://www.w3.org/2000/svg" xmlns:xlink="http://www.w3.org/1999/xlink" preserveAspectRatio="xMidYMid" width="96" height="96" viewBox="0 0 48 48">
  <defs>
    <style>
      .cls-1 {
        fill: #1b1b1b;
        fill-rule: evenodd;
      }
    </style>
  </defs>
  <path d="M47.981,13.151 L47.981,40.012 C47.981,41.113 47.084,42.009 45.982,42.009 L35.986,42.009 C35.433,42.009 34.986,41.562 34.986,41.011 C34.986,40.459 35.433,40.012 35.986,40.012 L45.982,40.012 L45.982,14.000 L35.000,14.000 C34.448,14.000 33.986,13.606 33.986,13.054 L33.986,2.000 L18.000,2.000 C18.000,2.552 17.546,3.070 16.993,3.070 C16.441,3.070 15.993,2.623 15.993,2.071 L15.993,1.572 C15.993,0.704 16.841,-0.000 18.000,-0.000 L35.000,-0.000 C35.322,-0.000 35.591,0.187 35.770,0.444 L47.580,12.239 C47.612,12.262 47.627,12.300 47.656,12.326 C47.685,12.353 47.707,12.384 47.733,12.414 C47.887,12.590 48.001,12.802 48.001,13.054 C48.001,13.088 47.984,13.117 47.981,13.151 ZM35.986,3.483 L35.986,12.056 L44.568,12.056 L35.986,3.483 ZM19.052,6.077 C19.144,6.083 19.232,6.101 19.319,6.131 C19.351,6.142 19.382,6.150 19.412,6.164 C19.514,6.211 19.610,6.271 19.693,6.353 C19.695,6.355 19.698,6.357 19.700,6.359 L31.586,18.230 C31.618,18.252 31.634,18.291 31.662,18.317 C31.691,18.344 31.713,18.374 31.739,18.404 C31.893,18.580 32.007,18.793 32.007,19.045 C32.007,19.079 31.991,19.108 31.987,19.141 L31.987,46.003 C31.987,47.103 31.090,48.000 29.988,48.000 L1.999,48.000 C0.897,48.000 -0.000,47.103 -0.000,46.003 L-0.000,8.062 C-0.000,6.961 0.897,6.065 1.999,6.065 L18.992,6.065 C19.014,6.065 19.031,6.076 19.052,6.077 ZM19.992,9.474 L19.992,18.046 L28.574,18.046 L19.992,9.474 ZM17.993,19.045 L17.993,8.000 L2.000,8.000 L1.999,46.003 L29.988,46.003 L29.988,20.000 L19.000,20.000 C18.448,20.000 17.993,19.597 17.993,19.045 Z" class="cls-1"/>
</svg>
