<svg xmlns="http://www.w3.org/2000/svg" xmlns:xlink="http://www.w3.org/1999/xlink" preserveAspectRatio="xMidYMid" width="96" height="80" viewBox="0 0 48 40">
  <defs>
    <style>
      .cls-1 {
        fill: #1b1b1b;
        fill-rule: evenodd;
      }
    </style>
  </defs>
  <path d="M45.900,40.000 L2.089,40.000 C0.990,40.000 0.000,39.103 0.000,38.000 L0.000,18.000 C0.000,17.822 0.074,17.716 0.171,17.632 C0.211,17.533 0.272,17.448 0.339,17.367 L4.709,0.745 C4.825,0.306 5.220,0.000 5.672,0.000 L42.317,0.000 C42.769,0.000 43.164,0.306 43.280,0.745 L47.649,17.367 C47.715,17.445 47.777,17.527 47.816,17.623 C47.921,17.707 48.000,17.816 48.000,18.000 L48.000,38.000 C48.000,39.103 46.998,40.000 45.900,40.000 ZM46.000,38.000 L46.000,19.000 L32.937,19.000 C32.422,23.429 28.536,27.000 23.994,27.000 C19.491,27.000 15.639,23.429 15.127,19.000 L2.000,19.000 L2.000,38.000 L46.000,38.000 ZM41.550,2.000 L6.439,2.000 L2.495,17.000 L16.066,17.000 C16.616,17.000 17.061,17.448 17.061,18.000 C17.061,21.794 20.236,25.000 23.994,25.000 C27.794,25.000 31.004,21.794 31.004,18.000 C31.004,17.448 31.450,17.000 32.000,17.000 L45.493,17.000 L41.550,2.000 Z" class="cls-1"/>
</svg>
