<svg xmlns="http://www.w3.org/2000/svg" xmlns:xlink="http://www.w3.org/1999/xlink" preserveAspectRatio="xMidYMid" width="64" height="96" viewBox="0 0 32 48">
  <defs>
    <style>
      .cls-1 {
        fill: #1b1b1b;
        fill-rule: evenodd;
      }
    </style>
  </defs>
  <path d="M16.000,48.000 C7.178,48.000 0.000,40.512 0.000,31.307 C0.000,19.372 14.600,1.142 15.222,0.372 C15.411,0.137 15.697,0.000 15.999,0.000 L16.000,0.000 C16.301,0.000 16.586,0.136 16.776,0.370 C17.398,1.136 32.000,19.268 32.000,31.307 C32.000,40.512 24.822,48.000 16.000,48.000 ZM16.002,2.624 C12.956,6.602 2.000,21.589 2.000,31.307 C2.000,39.408 8.280,46.000 16.000,46.000 C23.720,46.000 30.000,39.408 30.000,31.307 C30.000,21.499 19.051,6.587 16.002,2.624 Z" class="cls-1"/>
</svg>
