<svg xmlns="http://www.w3.org/2000/svg" xmlns:xlink="http://www.w3.org/1999/xlink" preserveAspectRatio="xMidYMid" width="80" height="96" viewBox="0 0 40 48">
  <defs>
    <style>
      .cls-1 {
        fill: #1b1b1b;
        fill-rule: evenodd;
      }
    </style>
  </defs>
  <path d="M38.992,47.989 C38.440,47.989 37.992,47.542 37.992,46.990 L37.992,26.955 L2.814,47.685 C2.458,47.894 2.097,48.000 1.737,48.000 C0.874,48.000 -0.000,47.320 -0.000,46.019 L-0.000,1.972 C-0.000,0.624 0.883,0.010 1.704,0.010 C2.075,0.010 2.450,0.126 2.816,0.354 L37.992,22.479 L37.992,1.000 C37.992,0.447 38.440,-0.000 38.992,-0.000 C39.544,-0.000 39.992,0.447 39.992,1.000 L39.992,46.990 C39.992,47.542 39.544,47.989 38.992,47.989 ZM1.999,2.203 L1.999,45.833 L37.822,24.735 L1.999,2.203 Z" class="cls-1"/>
</svg>
