<svg xmlns="http://www.w3.org/2000/svg" xmlns:xlink="http://www.w3.org/1999/xlink" preserveAspectRatio="xMidYMid" width="96" height="96" viewBox="0 0 48 48">
  <defs>
    <style>
      .cls-1 {
        fill: #1b1b1b;
        fill-rule: evenodd;
      }
    </style>
  </defs>
  <path d="M47.000,44.002 C46.448,44.002 46.000,43.555 46.000,43.002 L46.000,39.112 C46.000,18.648 29.352,2.000 8.889,2.000 L5.000,2.000 C4.448,2.000 4.000,1.553 4.000,1.000 C4.000,0.447 4.448,0.000 5.000,0.000 L8.889,0.000 C30.455,0.000 48.000,17.546 48.000,39.112 L48.000,43.002 C48.000,43.555 47.552,44.002 47.000,44.002 ZM16.000,40.000 C16.000,44.411 12.411,48.000 8.000,48.000 C3.589,48.000 0.000,44.411 0.000,40.000 C0.000,35.589 3.589,32.000 8.000,32.000 C12.411,32.000 16.000,35.589 16.000,40.000 ZM2.000,40.000 C2.000,43.309 4.691,46.000 8.000,46.000 C11.309,46.000 14.000,43.309 14.000,40.000 C14.000,36.691 11.309,34.000 8.000,34.000 C4.691,34.000 2.000,36.691 2.000,40.000 ZM5.000,18.000 C4.448,18.000 4.000,17.553 4.000,17.000 C4.000,16.447 4.448,16.000 5.000,16.000 L8.824,16.000 C21.604,16.000 32.000,26.398 32.000,39.177 L32.000,43.000 C32.000,43.553 31.552,44.000 31.000,44.000 C30.448,44.000 30.000,43.553 30.000,43.000 L30.000,39.177 C30.000,27.500 20.500,18.000 8.824,18.000 L5.000,18.000 Z" class="cls-1"/>
</svg>
