<svg xmlns="http://www.w3.org/2000/svg" xmlns:xlink="http://www.w3.org/1999/xlink" preserveAspectRatio="xMidYMid" width="96" height="96" viewBox="0 0 48 48">
  <defs>
    <style>
      .cls-1 {
        fill: #1b1b1b;
        fill-rule: evenodd;
      }
    </style>
  </defs>
  <path d="M45.000,48.000 L3.000,48.000 C1.346,48.000 -0.000,46.654 -0.000,45.000 L-0.000,3.000 C-0.000,1.346 1.346,0.000 3.000,0.000 L45.000,0.000 C46.654,0.000 48.000,1.346 48.000,3.000 L48.000,45.000 C48.000,46.654 46.654,48.000 45.000,48.000 ZM46.000,3.000 C46.000,2.449 45.552,2.000 45.000,2.000 L3.000,2.000 C2.448,2.000 2.000,2.449 2.000,3.000 L2.000,45.000 C2.000,45.551 2.448,46.000 3.000,46.000 L45.000,46.000 C45.552,46.000 46.000,45.551 46.000,45.000 L46.000,3.000 ZM41.000,41.000 L37.000,41.000 C36.447,41.000 36.000,40.552 36.000,40.000 L36.000,38.000 C36.000,37.448 36.447,37.000 37.000,37.000 L41.000,37.000 C41.553,37.000 42.000,37.448 42.000,38.000 L42.000,40.000 C42.000,40.552 41.553,41.000 41.000,41.000 ZM41.000,31.000 L37.000,31.000 C36.447,31.000 36.000,30.552 36.000,30.000 L36.000,28.000 C36.000,27.448 36.447,27.000 37.000,27.000 L41.000,27.000 C41.553,27.000 42.000,27.448 42.000,28.000 L42.000,30.000 C42.000,30.552 41.553,31.000 41.000,31.000 ZM41.000,21.000 L37.000,21.000 C36.447,21.000 36.000,20.552 36.000,20.000 L36.000,18.000 C36.000,17.448 36.447,17.000 37.000,17.000 L41.000,17.000 C41.553,17.000 42.000,17.448 42.000,18.000 L42.000,20.000 C42.000,20.552 41.553,21.000 41.000,21.000 ZM41.000,11.000 L37.000,11.000 C36.447,11.000 36.000,10.552 36.000,10.000 L36.000,8.000 C36.000,7.448 36.447,7.000 37.000,7.000 L41.000,7.000 C41.553,7.000 42.000,7.448 42.000,8.000 L42.000,10.000 C42.000,10.552 41.553,11.000 41.000,11.000 ZM11.000,41.000 L7.000,41.000 C6.447,41.000 6.000,40.552 6.000,40.000 L6.000,38.000 C6.000,37.448 6.447,37.000 7.000,37.000 L11.000,37.000 C11.553,37.000 12.000,37.448 12.000,38.000 L12.000,40.000 C12.000,40.552 11.553,41.000 11.000,41.000 ZM11.000,31.000 L7.000,31.000 C6.447,31.000 6.000,30.552 6.000,30.000 L6.000,28.000 C6.000,27.448 6.447,27.000 7.000,27.000 L11.000,27.000 C11.553,27.000 12.000,27.448 12.000,28.000 L12.000,30.000 C12.000,30.552 11.553,31.000 11.000,31.000 ZM11.000,21.000 L7.000,21.000 C6.447,21.000 6.000,20.552 6.000,20.000 L6.000,18.000 C6.000,17.448 6.447,17.000 7.000,17.000 L11.000,17.000 C11.553,17.000 12.000,17.448 12.000,18.000 L12.000,20.000 C12.000,20.552 11.553,21.000 11.000,21.000 ZM11.000,11.000 L7.000,11.000 C6.447,11.000 6.000,10.552 6.000,10.000 L6.000,8.000 C6.000,7.448 6.447,7.000 7.000,7.000 L11.000,7.000 C11.553,7.000 12.000,7.448 12.000,8.000 L12.000,10.000 C12.000,10.552 11.553,11.000 11.000,11.000 Z" class="cls-1"/>
</svg>
