<svg xmlns="http://www.w3.org/2000/svg" xmlns:xlink="http://www.w3.org/1999/xlink" preserveAspectRatio="xMidYMid" width="96" height="75.75" viewBox="0 0 48 37.875">
  <defs>
    <style>
      .cls-1 {
        fill: #1b1b1b;
        fill-rule: evenodd;
      }
    </style>
  </defs>
  <path d="M45.000,37.870 L3.000,37.870 C1.346,37.870 -0.000,36.529 -0.000,34.880 L-0.000,2.979 C-0.000,1.330 1.346,-0.011 3.000,-0.011 L17.866,-0.011 C17.912,-0.011 17.952,0.009 17.996,0.015 C18.065,0.024 18.132,0.032 18.199,0.055 C18.265,0.079 18.322,0.115 18.381,0.151 C18.419,0.174 18.462,0.183 18.498,0.213 L24.356,4.973 L45.000,4.973 C46.654,4.973 48.000,6.315 48.000,7.964 L48.000,34.880 C48.000,36.529 46.654,37.870 45.000,37.870 ZM3.000,35.876 L45.000,35.876 C45.552,35.876 46.000,35.430 46.000,34.880 L46.000,12.875 L2.000,12.875 L2.000,34.880 C2.000,35.430 2.448,35.876 3.000,35.876 ZM45.000,6.875 L24.417,6.875 C24.285,6.935 24.143,6.967 23.999,6.967 C23.777,6.967 23.554,6.894 23.368,6.743 L17.378,1.875 L3.000,1.875 C2.448,1.875 2.000,2.429 2.000,2.979 L2.000,10.954 L46.000,10.954 L46.000,7.964 C46.000,7.414 45.552,6.875 45.000,6.875 Z" class="cls-1"/>
</svg>
