<svg xmlns="http://www.w3.org/2000/svg" xmlns:xlink="http://www.w3.org/1999/xlink" preserveAspectRatio="xMidYMid" width="96" height="72" viewBox="0 0 48 36">
  <defs>
    <style>
      .cls-1 {
        fill: #1b1b1b;
        fill-rule: evenodd;
      }
    </style>
  </defs>
  <path d="M20.247,36.000 C20.246,36.000 20.246,36.000 20.246,36.000 C18.996,36.000 18.996,34.679 18.996,34.043 L18.996,25.940 L2.835,35.663 C2.475,35.885 2.098,36.000 1.724,36.000 C0.894,36.000 -0.000,35.380 -0.000,34.019 L-0.000,1.961 C-0.000,0.614 0.876,-0.000 1.690,-0.000 C2.077,-0.000 2.467,0.128 2.847,0.379 L18.996,10.043 L18.996,1.961 C18.996,1.567 18.996,1.301 19.040,1.057 C19.183,0.277 19.766,-0.000 20.222,-0.000 C20.618,-0.000 20.961,0.191 21.244,0.378 L47.001,16.860 C47.644,17.284 48.000,17.901 47.990,18.563 C47.981,19.223 47.609,19.828 46.968,20.225 L21.231,35.663 C20.966,35.826 20.633,36.000 20.247,36.000 ZM1.999,2.201 L1.999,33.831 L19.481,23.315 C19.790,23.131 20.177,23.124 20.488,23.302 C20.802,23.479 20.996,23.812 20.996,24.172 L20.996,33.473 L45.902,18.531 L20.996,2.594 L20.996,11.807 C20.996,12.167 20.803,12.499 20.489,12.677 C20.176,12.854 19.792,12.849 19.483,12.665 L1.999,2.201 Z" class="cls-1"/>
</svg>
