<svg xmlns="http://www.w3.org/2000/svg" xmlns:xlink="http://www.w3.org/1999/xlink" preserveAspectRatio="xMidYMid" width="96" height="72" viewBox="0 0 48 36">
  <defs>
    <style>
      .cls-1 {
        fill: #1b1b1b;
        fill-rule: evenodd;
      }
    </style>
  </defs>
  <path d="M47.000,36.000 L37.000,36.000 C36.448,36.000 36.000,35.553 36.000,35.000 C36.000,34.447 36.448,34.000 37.000,34.000 L46.000,34.000 L46.000,24.951 C46.000,24.398 46.448,23.951 47.000,23.951 C47.552,23.951 48.000,24.398 48.000,24.951 L48.000,35.000 C48.000,35.553 47.552,36.000 47.000,36.000 ZM47.000,11.967 C46.448,11.967 46.000,11.519 46.000,10.967 L46.000,2.016 L37.000,2.016 C36.448,2.016 36.000,1.568 36.000,1.016 C36.000,0.463 36.448,0.016 37.000,0.016 L47.000,0.016 C47.552,0.016 48.000,0.463 48.000,1.016 L48.000,10.967 C48.000,11.519 47.552,11.967 47.000,11.967 ZM11.000,36.000 L1.000,36.000 C0.448,36.000 0.000,35.553 0.000,35.000 L0.000,25.049 C0.000,24.496 0.448,24.049 1.000,24.049 C1.552,24.049 2.000,24.496 2.000,25.049 L2.000,34.000 L11.000,34.000 C11.552,34.000 12.000,34.447 12.000,35.000 C12.000,35.553 11.552,36.000 11.000,36.000 ZM11.000,2.000 L2.000,2.000 L2.000,11.049 C2.000,11.602 1.552,12.049 1.000,12.049 C0.448,12.049 0.000,11.602 0.000,11.049 L0.000,1.000 C0.000,0.447 0.448,-0.000 1.000,-0.000 L11.000,-0.000 C11.552,-0.000 12.000,0.447 12.000,1.000 C12.000,1.553 11.552,2.000 11.000,2.000 Z" class="cls-1"/>
</svg>
