<svg xmlns="http://www.w3.org/2000/svg" xmlns:xlink="http://www.w3.org/1999/xlink" preserveAspectRatio="xMidYMid" width="95.624" height="95.812" viewBox="0 0 47.812 47.906">
  <defs>
    <style>
      .cls-1 {
        fill: #1b1b1b;
        fill-rule: evenodd;
      }
    </style>
  </defs>
  <path d="M47.730,47.289 C47.629,47.533 47.435,47.728 47.191,47.829 C47.070,47.879 46.941,47.906 46.811,47.906 L36.849,47.906 C36.298,47.906 35.853,47.459 35.853,46.908 C35.853,46.357 36.298,45.910 36.849,45.910 L44.403,45.907 L30.168,31.645 C29.779,31.255 29.779,30.623 30.168,30.233 C30.557,29.844 31.187,29.844 31.576,30.233 L45.906,44.590 L45.906,36.906 C45.906,36.355 46.260,35.929 46.811,35.929 C47.362,35.929 47.807,36.376 47.807,36.927 L47.807,46.908 C47.807,47.038 47.781,47.167 47.730,47.289 ZM46.811,11.976 C46.260,11.976 45.906,11.457 45.906,10.906 L45.906,3.316 L31.576,17.672 C31.382,17.867 31.127,17.964 30.872,17.964 C30.617,17.964 30.362,17.867 30.168,17.672 C29.779,17.282 29.779,16.651 30.168,16.261 L44.496,1.906 L36.906,1.906 C36.355,1.906 35.853,1.549 35.853,0.998 C35.853,0.446 36.298,-0.000 36.849,-0.000 L46.811,-0.000 C46.941,-0.000 47.070,0.026 47.191,0.077 C47.435,0.178 47.629,0.372 47.730,0.616 C47.781,0.738 47.807,0.868 47.807,0.998 L47.807,10.978 C47.807,11.529 47.362,11.976 46.811,11.976 ZM3.398,45.907 L10.952,45.910 C11.503,45.910 11.948,46.357 11.948,46.908 C11.948,47.459 11.503,47.906 10.952,47.906 L0.990,47.906 C0.860,47.906 0.731,47.879 0.609,47.829 C0.366,47.728 0.171,47.533 0.071,47.289 C0.021,47.170 -0.004,47.043 -0.005,46.916 C-0.005,46.913 -0.006,46.911 -0.006,46.908 L-0.006,36.927 C-0.006,36.376 0.439,35.929 0.990,35.929 C1.541,35.929 1.906,36.355 1.906,36.906 L1.906,44.579 L16.224,30.233 C16.613,29.844 17.244,29.844 17.633,30.233 C18.022,30.623 18.022,31.255 17.633,31.645 L3.398,45.907 ZM16.929,17.964 C16.674,17.964 16.419,17.867 16.224,17.672 L1.906,3.327 L1.906,10.906 C1.906,11.457 1.457,11.906 0.906,11.906 C0.355,11.906 -0.006,11.529 -0.006,10.978 L-0.006,0.998 C-0.006,0.995 -0.005,0.993 -0.005,0.991 C-0.004,0.863 0.021,0.736 0.071,0.617 C0.171,0.372 0.366,0.178 0.609,0.077 C0.731,0.026 0.860,-0.000 0.990,-0.000 L10.952,-0.000 C11.503,-0.000 11.948,0.446 11.948,0.998 C11.948,1.549 11.457,1.906 10.906,1.906 L3.305,1.906 L17.633,16.261 C18.022,16.651 18.022,17.282 17.633,17.672 C17.438,17.867 17.184,17.964 16.929,17.964 Z" class="cls-1"/>
</svg>
