<svg xmlns="http://www.w3.org/2000/svg" xmlns:xlink="http://www.w3.org/1999/xlink" preserveAspectRatio="xMidYMid" width="96" height="96" viewBox="0 0 48 48">
  <defs>
    <style>
      .cls-1 {
        fill: #1b1b1b;
        fill-rule: evenodd;
      }
    </style>
  </defs>
  <path d="M24.000,48.000 C10.767,48.000 0.000,37.233 0.000,24.000 C0.000,10.767 10.767,-0.000 24.000,-0.000 C37.233,-0.000 48.000,10.767 48.000,24.000 C48.000,37.233 37.233,48.000 24.000,48.000 ZM43.029,35.006 C44.755,32.039 45.801,28.634 45.966,25.000 L36.957,25.000 C36.853,28.501 36.236,31.862 35.121,35.000 L43.000,35.000 C43.010,35.000 43.019,35.005 43.029,35.006 ZM25.000,23.000 L34.954,23.000 C34.841,19.480 34.168,16.117 32.972,13.000 L25.000,13.000 L25.000,23.000 ZM41.707,37.000 L34.320,37.000 C32.973,40.089 31.160,42.942 28.859,45.441 C34.097,44.254 38.619,41.186 41.707,37.000 ZM25.000,45.949 C25.178,45.937 25.357,45.935 25.535,45.922 C28.339,43.382 30.533,40.352 32.120,37.000 L25.000,37.000 L25.000,45.949 ZM32.972,35.000 C34.168,31.882 34.841,28.520 34.954,25.000 L25.000,25.000 L25.000,35.000 L32.972,35.000 ZM23.000,25.000 L13.046,25.000 C13.159,28.520 13.831,31.883 15.027,35.000 L23.000,35.000 L23.000,25.000 ZM23.000,45.949 L23.000,37.000 L15.878,37.000 C17.464,40.352 19.657,43.382 22.460,45.922 C22.639,45.934 22.821,45.937 23.000,45.949 ZM19.145,45.442 C16.879,42.961 15.072,40.096 13.721,37.000 L6.293,37.000 C9.382,41.187 13.905,44.256 19.145,45.442 ZM5.000,35.000 L12.916,35.000 C11.786,31.839 11.152,28.467 11.044,25.000 L2.034,25.000 C2.199,28.634 3.245,32.039 4.971,35.006 C4.981,35.005 4.990,35.000 5.000,35.000 ZM4.971,12.994 C3.245,15.961 2.199,19.366 2.034,23.000 L11.043,23.000 C11.147,19.499 11.765,16.138 12.880,13.000 L5.000,13.000 C4.990,13.000 4.981,12.995 4.971,12.994 ZM6.293,11.000 L13.681,11.000 C15.029,7.911 16.843,5.057 19.145,2.558 C13.905,3.744 9.382,6.813 6.293,11.000 ZM23.000,2.051 C22.824,2.062 22.645,2.065 22.469,2.078 C19.665,4.618 17.469,7.649 15.882,11.000 L23.000,11.000 L23.000,2.051 ZM15.030,13.000 C13.832,16.118 13.159,19.481 13.046,23.000 L23.000,23.000 L23.000,13.000 L15.030,13.000 ZM25.000,2.051 L25.000,11.000 L32.120,11.000 C30.533,7.648 28.338,4.618 25.534,2.078 C25.357,2.065 25.177,2.063 25.000,2.051 ZM28.858,2.559 C31.160,5.058 32.973,7.911 34.320,11.000 L41.707,11.000 C38.619,6.814 34.097,3.745 28.858,2.559 ZM43.000,13.000 L35.121,13.000 C36.236,16.138 36.853,19.499 36.957,23.000 L45.966,23.000 C45.801,19.366 44.755,15.961 43.029,12.994 C43.019,12.995 43.010,13.000 43.000,13.000 Z" class="cls-1"/>
</svg>
