<svg xmlns="http://www.w3.org/2000/svg" xmlns:xlink="http://www.w3.org/1999/xlink" preserveAspectRatio="xMidYMid" width="76" height="94.938" viewBox="0 0 38 47.469">
  <defs>
    <style>
      .cls-1 {
        fill: #1b1b1b;
        fill-rule: evenodd;
      }
    </style>
  </defs>
  <path d="M17.000,41.412 L17.000,45.473 L22.000,45.473 C22.553,45.473 23.000,45.919 23.000,46.470 C23.000,47.021 22.553,47.467 22.000,47.467 L10.000,47.467 C9.447,47.467 9.000,47.021 9.000,46.470 C9.000,45.919 9.447,45.473 10.000,45.473 L15.000,45.473 L15.000,41.456 C11.443,41.337 7.913,40.287 4.496,38.304 C4.019,38.026 3.857,37.416 4.135,36.940 C4.412,36.464 5.024,36.303 5.502,36.580 C8.783,38.484 12.161,39.457 15.544,39.480 C15.682,39.408 15.833,39.357 16.000,39.357 C16.146,39.357 16.282,39.391 16.407,39.447 C27.274,39.054 36.000,30.139 36.000,19.208 C36.000,12.016 32.208,5.522 25.856,1.836 C25.379,1.560 25.218,0.949 25.495,0.473 C25.773,-0.003 26.385,-0.164 26.862,0.113 C33.836,4.159 38.000,11.298 38.000,19.208 C38.000,31.040 28.693,40.718 17.000,41.412 ZM32.001,19.546 C32.001,28.343 24.823,35.501 16.001,35.501 C7.178,35.501 -0.000,28.343 -0.000,19.546 C-0.000,10.749 7.178,3.591 16.001,3.591 C24.823,3.591 32.001,10.749 32.001,19.546 ZM16.001,5.585 C8.281,5.585 2.000,11.848 2.000,19.546 C2.000,27.244 8.281,33.506 16.001,33.506 C23.721,33.506 30.001,27.244 30.001,19.546 C30.001,11.848 23.721,5.585 16.001,5.585 Z" class="cls-1"/>
</svg>
