<svg xmlns="http://www.w3.org/2000/svg" xmlns:xlink="http://www.w3.org/1999/xlink" preserveAspectRatio="xMidYMid" width="96" height="58" viewBox="0 0 48 29">
  <defs>
    <style>
      .cls-1 {
        fill: #1b1b1b;
        fill-rule: evenodd;
      }
    </style>
  </defs>
  <path d="M44.500,7.000 C43.858,7.000 43.263,6.814 42.745,6.510 L32.878,15.633 C32.950,15.912 33.000,16.199 33.000,16.500 C33.000,18.430 31.430,20.000 29.500,20.000 C27.570,20.000 26.000,18.430 26.000,16.500 C26.000,16.437 26.015,16.379 26.019,16.317 L19.045,12.887 C18.406,13.568 17.505,14.000 16.500,14.000 C15.914,14.000 15.370,13.841 14.884,13.586 C14.872,13.602 14.869,13.622 14.856,13.637 L6.505,23.736 C6.812,24.256 7.000,24.854 7.000,25.500 C7.000,27.430 5.430,29.000 3.500,29.000 C1.570,29.000 0.000,27.430 0.000,25.500 C0.000,23.570 1.570,22.000 3.500,22.000 C4.054,22.000 4.572,22.141 5.038,22.372 L13.315,12.363 C13.362,12.307 13.423,12.275 13.477,12.232 C13.182,11.719 13.000,11.133 13.000,10.500 C13.000,8.570 14.570,7.000 16.500,7.000 C18.430,7.000 20.000,8.570 20.000,10.500 C20.000,10.705 19.973,10.903 19.940,11.098 L26.699,14.422 C27.338,13.564 28.351,13.000 29.500,13.000 C30.390,13.000 31.195,13.344 31.813,13.894 L41.378,5.050 C41.144,4.581 41.000,4.059 41.000,3.500 C41.000,1.570 42.570,-0.000 44.500,-0.000 C46.430,-0.000 48.000,1.570 48.000,3.500 C48.000,5.430 46.430,7.000 44.500,7.000 ZM3.500,24.000 C2.673,24.000 2.000,24.673 2.000,25.500 C2.000,26.327 2.673,27.000 3.500,27.000 C4.327,27.000 5.000,26.327 5.000,25.500 C5.000,24.673 4.327,24.000 3.500,24.000 ZM16.500,9.000 C15.673,9.000 15.000,9.673 15.000,10.500 C15.000,11.327 15.673,12.000 16.500,12.000 C17.327,12.000 18.000,11.327 18.000,10.500 C18.000,9.673 17.327,9.000 16.500,9.000 ZM29.500,15.000 C28.673,15.000 28.000,15.673 28.000,16.500 C28.000,17.327 28.673,18.000 29.500,18.000 C30.327,18.000 31.000,17.327 31.000,16.500 C31.000,15.673 30.327,15.000 29.500,15.000 ZM44.500,2.000 C43.673,2.000 43.000,2.673 43.000,3.500 C43.000,4.327 43.673,5.000 44.500,5.000 C45.327,5.000 46.000,4.327 46.000,3.500 C46.000,2.673 45.327,2.000 44.500,2.000 Z" class="cls-1"/>
</svg>
