<svg xmlns="http://www.w3.org/2000/svg" xmlns:xlink="http://www.w3.org/1999/xlink" preserveAspectRatio="xMidYMid" width="96" height="96" viewBox="0 0 48 48">
  <defs>
    <style>
      .cls-1 {
        fill: #1b1b1b;
        fill-rule: evenodd;
      }
    </style>
  </defs>
  <path d="M46.000,48.000 L30.000,48.000 C28.897,48.000 28.000,47.103 28.000,46.000 L28.000,30.000 C28.000,28.897 28.897,28.000 30.000,28.000 L46.000,28.000 C47.103,28.000 48.000,28.897 48.000,30.000 L48.000,46.000 C48.000,47.103 47.103,48.000 46.000,48.000 ZM30.000,30.000 L30.000,46.000 L45.997,46.000 L46.000,30.000 L30.000,30.000 ZM46.000,20.000 L30.000,20.000 C28.897,20.000 28.000,19.103 28.000,18.000 L28.000,2.000 C28.000,0.897 28.897,0.000 30.000,0.000 L46.000,0.000 C47.103,0.000 48.000,0.897 48.000,2.000 L48.000,18.000 C48.000,19.103 47.103,20.000 46.000,20.000 ZM30.000,2.000 L30.000,18.000 L45.997,18.000 L46.000,2.000 L30.000,2.000 ZM18.000,48.000 L2.000,48.000 C0.897,48.000 0.000,47.103 0.000,46.000 L0.000,30.000 C0.000,28.897 0.897,28.000 2.000,28.000 L18.000,28.000 C19.103,28.000 20.000,28.897 20.000,30.000 L20.000,46.000 C20.000,47.103 19.103,48.000 18.000,48.000 ZM2.000,30.000 L2.000,46.000 L17.997,46.000 L18.000,30.000 L2.000,30.000 ZM18.000,20.000 L2.000,20.000 C0.897,20.000 0.000,19.103 0.000,18.000 L0.000,2.000 C0.000,0.897 0.897,0.000 2.000,0.000 L18.000,0.000 C19.103,0.000 20.000,0.897 20.000,2.000 L20.000,18.000 C20.000,19.103 19.103,20.000 18.000,20.000 ZM2.000,2.000 L2.000,18.000 L17.997,18.000 L18.000,2.000 L2.000,2.000 Z" class="cls-1"/>
</svg>
