<svg xmlns="http://www.w3.org/2000/svg" xmlns:xlink="http://www.w3.org/1999/xlink" preserveAspectRatio="xMidYMid" width="95.624" height="96" viewBox="0 0 47.812 48">
  <defs>
    <style>
      .cls-1 {
        fill: #1b1b1b;
        fill-rule: evenodd;
      }
    </style>
  </defs>
  <path d="M47.363,47.173 C46.954,47.699 46.310,48.000 45.596,48.000 L2.315,48.000 C1.625,48.000 0.978,47.711 0.539,47.208 C0.099,46.702 -0.100,46.016 -0.007,45.326 L3.954,18.896 C4.286,16.734 6.325,14.979 8.499,14.979 L12.926,14.979 L12.926,11.000 C12.926,4.935 17.844,0.000 23.889,0.000 C29.933,0.000 34.851,4.934 34.852,10.999 C34.852,10.999 34.852,10.999 34.852,10.999 L34.854,14.979 L39.412,14.979 C41.602,14.979 43.605,16.752 43.877,18.933 L47.752,45.349 C47.907,45.947 47.771,46.647 47.363,47.173 ZM13.929,23.000 C13.376,23.000 12.926,23.450 12.926,24.002 C12.926,24.551 13.376,24.998 13.929,24.998 C14.475,24.998 14.919,24.551 14.919,24.002 C14.919,23.450 14.475,23.000 13.929,23.000 ZM32.858,11.000 C32.858,11.000 32.858,11.000 32.858,11.000 C32.858,6.038 28.835,2.000 23.889,2.000 C18.943,2.000 14.919,6.038 14.919,11.000 L14.919,14.979 L32.860,14.979 L32.858,11.000 C32.858,11.000 32.858,11.000 32.858,11.000 ZM33.861,23.000 C33.308,23.000 32.858,23.450 32.858,24.002 C32.858,24.551 33.308,24.998 33.861,24.998 C34.407,24.998 34.852,24.551 34.852,24.002 C34.852,23.450 34.407,23.000 33.861,23.000 ZM41.902,19.202 C41.750,17.987 40.611,16.979 39.412,16.979 L34.855,16.979 L34.857,21.185 C36.012,21.600 36.845,22.700 36.845,24.002 C36.845,25.654 35.507,26.998 33.861,26.998 C32.209,26.998 30.865,25.654 30.865,24.002 C30.865,22.699 31.703,21.598 32.864,21.184 L32.862,16.979 L14.919,16.979 L14.919,21.183 C16.077,21.597 16.913,22.698 16.913,24.002 C16.913,25.654 15.574,26.998 13.929,26.998 C12.277,26.998 10.933,25.654 10.933,24.002 C10.933,22.701 11.769,21.601 12.926,21.186 L12.926,16.979 L8.499,16.979 C7.288,16.979 6.109,17.995 5.925,19.197 L1.966,45.609 C1.952,45.716 1.977,45.819 2.040,45.892 C2.102,45.962 2.197,46.000 2.315,46.000 L45.596,46.000 C45.707,46.000 45.769,45.970 45.791,45.943 C45.813,45.915 45.827,45.846 45.800,45.737 L41.902,19.202 Z" class="cls-1"/>
</svg>
