<svg xmlns="http://www.w3.org/2000/svg" xmlns:xlink="http://www.w3.org/1999/xlink" preserveAspectRatio="xMidYMid" width="96" height="96" viewBox="0 0 48 48">
  <defs>
    <style>
      .cls-1 {
        fill: #1b1b1b;
        fill-rule: evenodd;
      }
    </style>
  </defs>
  <path d="M47.371,41.796 L32.039,47.929 C31.921,47.976 31.795,48.000 31.668,48.000 L26.000,48.000 L25.533,48.000 L22.000,48.000 C21.448,48.000 21.000,47.553 21.000,47.000 L21.000,45.000 C21.000,44.447 21.448,44.000 22.000,44.000 L26.000,44.000 C26.553,44.000 27.000,44.447 27.000,45.000 L27.000,46.000 L31.476,46.000 L41.476,42.000 L40.334,42.000 C37.944,42.000 36.000,40.115 36.000,37.799 L36.000,28.200 C36.000,25.884 37.944,24.000 40.334,24.000 L43.668,24.000 C44.528,24.000 45.325,24.251 46.000,24.672 L46.000,24.000 C46.000,11.869 36.131,2.000 24.000,2.000 C11.869,2.000 2.000,11.869 2.000,24.000 L2.000,24.672 C2.675,24.251 3.473,24.000 4.334,24.000 L7.668,24.000 C10.057,24.000 12.000,25.884 12.000,28.200 L12.000,37.799 C12.000,40.115 10.057,42.000 7.668,42.000 L4.334,42.000 C1.944,42.000 0.000,40.115 0.000,37.799 L0.000,28.600 L0.000,28.200 L0.000,24.000 C0.000,10.767 10.767,0.000 24.000,0.000 C37.233,0.000 48.000,10.767 48.000,24.000 L48.000,25.533 L48.000,28.200 L48.000,28.600 L48.000,37.799 L48.000,40.867 C48.000,41.276 47.751,41.644 47.371,41.796 ZM2.000,28.600 L2.000,37.799 C2.000,39.013 3.047,40.000 4.334,40.000 L7.668,40.000 C8.954,40.000 10.000,39.013 10.000,37.799 L10.000,28.200 C10.000,26.987 8.954,26.000 7.668,26.000 L4.334,26.000 C3.047,26.000 2.000,26.987 2.000,28.200 L2.000,28.600 ZM43.668,26.000 L40.334,26.000 C39.047,26.000 38.000,26.987 38.000,28.200 L38.000,37.799 C38.000,39.013 39.047,40.000 40.334,40.000 L43.668,40.000 C44.954,40.000 46.000,39.013 46.000,37.799 L46.000,28.600 L46.000,28.200 C46.000,26.987 44.954,26.000 43.668,26.000 Z" class="cls-1"/>
</svg>
