<svg xmlns="http://www.w3.org/2000/svg" xmlns:xlink="http://www.w3.org/1999/xlink" preserveAspectRatio="xMidYMid" width="96" height="92" viewBox="0 0 48 46">
  <defs>
    <style>
      .cls-1 {
        fill: #1b1b1b;
        fill-rule: evenodd;
      }
    </style>
  </defs>
  <path d="M43.000,46.000 L41.000,46.000 C38.243,46.000 36.000,43.757 36.000,41.000 L36.000,29.000 C36.000,26.243 38.243,24.000 41.000,24.000 L43.000,24.000 C44.130,24.000 45.162,24.391 46.000,25.026 L46.000,24.000 C46.000,11.869 36.131,2.000 24.000,2.000 C11.869,2.000 2.000,11.869 2.000,24.000 L2.000,25.026 C2.838,24.391 3.870,24.000 5.000,24.000 L7.000,24.000 C9.757,24.000 12.000,26.243 12.000,29.000 L12.000,41.000 C12.000,43.757 9.757,46.000 7.000,46.000 L5.000,46.000 C2.243,46.000 0.000,43.757 0.000,41.000 L0.000,31.667 L0.000,29.000 L0.000,24.000 C0.000,10.767 10.767,0.000 24.000,0.000 C37.233,0.000 48.000,10.767 48.000,24.000 L48.000,29.000 L48.000,31.667 L48.000,41.000 C48.000,43.757 45.757,46.000 43.000,46.000 ZM2.000,41.000 C2.000,42.654 3.346,44.000 5.000,44.000 L7.000,44.000 C8.654,44.000 10.000,42.654 10.000,41.000 L10.000,29.000 C10.000,27.346 8.654,26.000 7.000,26.000 L5.000,26.000 C3.346,26.000 2.000,27.346 2.000,29.000 L2.000,31.667 L2.000,41.000 ZM43.000,26.000 L41.000,26.000 C39.346,26.000 38.000,27.346 38.000,29.000 L38.000,41.000 C38.000,42.654 39.346,44.000 41.000,44.000 L43.000,44.000 C44.654,44.000 46.000,42.654 46.000,41.000 L46.000,31.667 L46.000,29.000 C46.000,27.346 44.654,26.000 43.000,26.000 Z" class="cls-1"/>
</svg>
