<svg xmlns="http://www.w3.org/2000/svg" xmlns:xlink="http://www.w3.org/1999/xlink" preserveAspectRatio="xMidYMid" width="96" height="96" viewBox="0 0 48 48">
  <defs>
    <style>
      .cls-1 {
        fill: #1b1b1b;
        fill-rule: evenodd;
      }
    </style>
  </defs>
  <path d="M24.000,48.000 C10.767,48.000 0.000,37.233 0.000,24.000 C0.000,22.160 0.228,20.375 0.622,18.653 C0.628,18.635 0.628,18.615 0.636,18.598 C2.693,9.703 9.697,2.697 18.592,0.637 C18.642,0.615 18.699,0.610 18.754,0.596 C20.445,0.217 22.196,0.000 24.000,0.000 C25.805,0.000 27.558,0.217 29.250,0.596 C29.303,0.610 29.358,0.615 29.407,0.637 C38.302,2.696 45.307,9.702 47.364,18.598 C47.372,18.615 47.372,18.635 47.378,18.653 C47.772,20.375 48.000,22.160 48.000,24.000 C48.000,37.233 37.233,48.000 24.000,48.000 ZM45.149,29.992 L34.381,29.992 C33.328,31.809 31.816,33.322 30.000,34.376 L30.000,45.147 C37.312,43.069 43.073,37.306 45.149,29.992 ZM24.000,14.000 C18.486,14.000 14.000,18.486 14.000,24.000 C14.000,27.849 16.190,31.192 19.386,32.863 C19.390,32.864 19.393,32.867 19.397,32.868 C20.776,33.587 22.340,34.000 24.000,34.000 C25.662,34.000 27.226,33.587 28.607,32.867 C28.609,32.865 28.611,32.864 28.614,32.863 C31.810,31.192 34.000,27.849 34.000,24.000 C34.000,18.486 29.514,14.000 24.000,14.000 ZM24.000,46.000 C25.368,46.000 26.701,45.858 28.000,45.618 L28.000,35.300 C26.747,35.745 25.404,36.000 24.000,36.000 C22.596,36.000 21.254,35.745 20.001,35.300 L20.001,45.618 C21.300,45.858 22.633,46.000 24.000,46.000 ZM18.001,45.147 L18.001,34.377 C16.185,33.323 14.673,31.810 13.620,29.994 L2.851,29.993 C4.927,37.307 10.689,43.069 18.001,45.147 ZM2.000,24.000 C2.000,25.365 2.142,26.696 2.381,27.993 L12.698,27.994 C12.254,26.742 12.000,25.402 12.000,24.000 C12.000,22.594 12.256,21.249 12.702,19.994 L2.383,19.994 C2.142,21.295 2.000,22.630 2.000,24.000 ZM2.854,17.994 L13.627,17.994 C14.680,16.184 16.189,14.675 18.000,13.624 L18.000,2.853 C10.692,4.930 4.933,10.687 2.854,17.994 ZM24.000,2.000 C22.632,2.000 21.299,2.142 20.000,2.382 L20.000,12.700 C21.253,12.255 22.596,12.000 24.000,12.000 C25.404,12.000 26.746,12.255 27.999,12.700 L27.999,2.382 C26.700,2.142 25.367,2.000 24.000,2.000 ZM29.999,2.853 L29.999,13.623 C31.811,14.675 33.320,16.183 34.373,17.994 L45.146,17.994 C43.066,10.687 37.307,4.929 29.999,2.853 ZM45.617,19.994 L35.298,19.994 C35.744,21.249 36.000,22.594 36.000,24.000 C36.000,25.401 35.746,26.741 35.303,27.992 L45.619,27.992 C45.858,26.695 46.000,25.365 46.000,24.000 C46.000,22.630 45.858,21.295 45.617,19.994 Z" class="cls-1"/>
</svg>
