<svg xmlns="http://www.w3.org/2000/svg" xmlns:xlink="http://www.w3.org/1999/xlink" preserveAspectRatio="xMidYMid" width="95.624" height="95.75" viewBox="0 0 47.812 47.875">
  <defs>
    <style>
      .cls-1 {
        fill: #1b1b1b;
        fill-rule: evenodd;
      }
    </style>
  </defs>
  <path d="M47.459,27.663 C47.269,27.831 47.034,27.913 46.799,27.913 C46.524,27.913 46.250,27.800 46.053,27.577 L43.813,25.037 L43.813,45.881 C43.813,46.982 42.920,47.877 41.822,47.877 L31.867,47.877 C30.770,47.877 29.877,46.982 29.877,45.881 L29.877,30.908 L16.906,30.875 L16.906,45.875 C16.906,46.976 16.043,47.877 14.945,47.877 L5.986,47.877 C4.888,47.877 3.906,46.976 3.906,45.875 L3.906,25.138 L1.755,27.577 C1.391,27.988 0.762,28.029 0.349,27.663 C-0.062,27.298 -0.101,26.667 0.264,26.254 L23.158,0.301 C23.537,-0.127 24.271,-0.127 24.650,0.301 L43.502,21.672 C43.518,21.687 43.530,21.704 43.545,21.720 L47.545,26.254 C47.909,26.667 47.870,27.298 47.459,27.663 ZM23.904,2.469 L5.906,22.871 C5.906,22.872 5.906,22.874 5.906,22.875 L5.906,45.875 L14.945,45.881 L14.945,30.908 C14.945,29.807 15.838,28.912 16.936,28.912 L29.877,28.912 C30.975,28.912 31.867,29.807 31.867,30.908 L31.867,45.881 L41.906,45.875 L41.906,22.875 L23.904,2.469 Z" class="cls-1"/>
</svg>
