<svg xmlns="http://www.w3.org/2000/svg" xmlns:xlink="http://www.w3.org/1999/xlink" preserveAspectRatio="xMidYMid" width="95.688" height="91.876" viewBox="0 0 47.844 45.938">
  <defs>
    <style>
      .cls-1 {
        fill: #1b1b1b;
        fill-rule: evenodd;
      }
    </style>
  </defs>
  <path d="M47.322,13.850 L24.394,25.841 C24.250,25.916 24.091,25.954 23.933,25.954 C23.775,25.954 23.616,25.916 23.472,25.841 L0.549,13.850 C0.142,13.638 -0.068,13.173 0.042,12.726 C0.117,12.419 0.330,12.175 0.603,12.052 L23.476,0.087 C23.764,-0.063 24.110,-0.063 24.398,0.087 L47.322,12.078 C47.651,12.251 47.857,12.592 47.857,12.964 C47.857,13.337 47.651,13.678 47.322,13.850 ZM23.937,2.100 L3.166,12.965 L23.933,23.828 L44.705,12.964 L23.937,2.100 ZM0.557,21.607 L3.547,20.069 C4.036,19.815 4.637,20.011 4.889,20.501 C5.140,20.993 4.947,21.595 4.457,21.847 L3.150,22.519 L23.937,33.810 L44.725,22.520 L43.417,21.847 C42.927,21.594 42.734,20.992 42.985,20.501 C43.237,20.012 43.836,19.817 44.328,20.069 L47.292,21.596 C47.552,21.722 47.752,21.957 47.827,22.250 C47.939,22.694 47.738,23.157 47.337,23.374 L24.412,35.825 C24.264,35.907 24.101,35.946 23.937,35.946 C23.773,35.946 23.611,35.907 23.462,35.825 L0.537,23.374 C0.212,23.197 0.011,22.855 0.015,22.484 C0.020,22.114 0.228,21.776 0.557,21.607 ZM0.557,31.599 L3.547,30.061 C4.036,29.808 4.637,30.003 4.889,30.494 C5.140,30.985 4.947,31.588 4.457,31.839 L3.150,32.512 L23.937,43.803 L44.725,32.513 L43.417,31.839 C42.927,31.586 42.734,30.984 42.985,30.494 C43.237,30.004 43.836,29.809 44.328,30.061 L47.292,31.589 C47.552,31.714 47.752,31.950 47.827,32.242 C47.939,32.686 47.738,33.149 47.337,33.366 L24.412,45.818 C24.264,45.899 24.101,45.939 23.937,45.939 C23.773,45.939 23.611,45.899 23.462,45.818 L0.537,33.366 C0.212,33.190 0.011,32.847 0.015,32.476 C0.020,32.107 0.228,31.768 0.557,31.599 Z" class="cls-1"/>
</svg>
