<svg xmlns="http://www.w3.org/2000/svg" xmlns:xlink="http://www.w3.org/1999/xlink" preserveAspectRatio="xMidYMid" width="88" height="93.688" viewBox="0 0 44 46.844">
  <defs>
    <style>
      .cls-1 {
        fill: #1b1b1b;
        fill-rule: evenodd;
      }
    </style>
  </defs>
  <path d="M31.978,46.839 L22.984,46.839 C19.625,46.839 17.224,45.935 15.105,45.137 C13.316,44.463 11.771,43.882 9.890,43.882 C6.921,43.882 3.985,43.848 3.985,43.848 C3.826,43.846 3.670,43.806 3.530,43.732 C3.168,43.542 -0.001,41.646 -0.001,33.877 C-0.001,26.311 2.038,22.579 2.125,22.423 C2.266,22.170 2.511,21.991 2.796,21.933 C2.869,21.918 10.108,20.387 14.283,16.222 C18.230,12.283 20.623,6.050 20.946,1.929 C21.038,0.744 22.117,-0.167 23.332,0.018 C25.029,0.271 28.980,1.646 28.980,8.950 C28.980,12.216 28.540,15.902 28.000,17.844 L37.000,17.844 C40.654,17.844 42.970,19.655 42.970,22.442 C42.970,23.854 42.457,24.862 41.771,25.559 C43.064,26.266 44.001,27.558 44.001,29.515 C44.001,31.455 43.058,32.643 41.823,33.280 C42.483,33.985 42.970,34.999 42.970,36.412 C42.970,38.549 41.854,39.788 40.452,40.393 C40.765,40.901 40.972,41.558 40.972,42.394 C40.972,46.152 37.942,46.839 31.978,46.839 ZM4.323,41.858 C5.155,41.865 7.511,41.888 9.890,41.888 C12.135,41.888 13.921,42.560 15.811,43.271 C17.865,44.046 19.989,44.845 22.984,44.845 L31.978,44.845 C38.973,44.845 38.973,43.710 38.973,42.394 C38.973,41.017 37.974,40.864 37.859,40.850 C37.324,40.789 36.933,40.314 36.977,39.778 C37.021,39.242 37.467,38.844 38.023,38.863 C38.024,38.863 38.025,38.863 38.027,38.863 C38.955,38.863 40.972,38.622 40.972,36.412 C40.972,34.138 38.946,33.880 38.859,33.870 C38.319,33.809 37.928,33.328 37.978,32.788 C38.028,32.249 38.492,31.849 39.044,31.886 L39.174,31.888 C40.230,31.888 42.002,31.580 42.002,29.515 C42.002,27.152 39.940,26.897 39.054,26.897 C38.526,26.897 38.049,26.488 38.016,25.962 C37.983,25.436 38.325,24.976 38.849,24.911 C39.197,24.862 40.972,24.507 40.972,22.442 C40.972,20.164 38.180,19.844 37.000,19.844 L26.000,19.844 C25.681,19.844 25.571,19.765 25.383,19.508 C25.195,19.250 25.142,18.918 25.239,18.615 C25.257,18.561 26.981,13.172 26.981,8.950 C26.981,4.840 25.581,2.369 23.037,1.991 C23.000,1.986 22.943,2.025 22.939,2.083 C22.598,6.432 20.186,13.152 15.696,17.632 C11.707,21.611 5.490,23.341 3.691,23.774 C3.223,24.847 1.998,28.197 1.998,33.877 C1.998,39.435 3.770,41.384 4.323,41.858 Z" class="cls-1"/>
</svg>
