<svg xmlns="http://www.w3.org/2000/svg" xmlns:xlink="http://www.w3.org/1999/xlink" preserveAspectRatio="xMidYMid" width="96" height="56" viewBox="0 0 48 28">
  <defs>
    <style>
      .cls-1 {
        fill: #1b1b1b;
        fill-rule: evenodd;
      }
    </style>
  </defs>
  <path d="M47.000,15.000 L15.000,15.000 C14.448,15.000 14.000,14.552 14.000,14.000 C14.000,13.448 14.448,13.000 15.000,13.000 L47.000,13.000 C47.552,13.000 48.000,13.448 48.000,14.000 C48.000,14.552 47.552,15.000 47.000,15.000 ZM47.000,4.000 L15.000,4.000 C14.448,4.000 14.000,3.552 14.000,3.000 C14.000,2.448 14.448,2.000 15.000,2.000 L47.000,2.000 C47.552,2.000 48.000,2.448 48.000,3.000 C48.000,3.552 47.552,4.000 47.000,4.000 ZM5.000,28.000 L1.000,28.000 C0.448,28.000 0.000,27.552 0.000,27.000 L0.000,23.000 C0.000,22.448 0.448,22.000 1.000,22.000 L5.000,22.000 C5.552,22.000 6.000,22.448 6.000,23.000 L6.000,27.000 C6.000,27.552 5.552,28.000 5.000,28.000 ZM4.000,24.000 L2.000,24.000 L2.000,26.000 L4.000,26.000 L4.000,24.000 ZM5.000,17.000 L1.000,17.000 C0.448,17.000 0.000,16.552 0.000,16.000 L0.000,12.000 C0.000,11.448 0.448,11.000 1.000,11.000 L5.000,11.000 C5.552,11.000 6.000,11.448 6.000,12.000 L6.000,16.000 C6.000,16.552 5.552,17.000 5.000,17.000 ZM4.000,13.000 L2.000,13.000 L2.000,15.000 L4.000,15.000 L4.000,13.000 ZM5.000,6.000 L1.000,6.000 C0.448,6.000 0.000,5.552 0.000,5.000 L0.000,1.000 C0.000,0.448 0.448,-0.000 1.000,-0.000 L5.000,-0.000 C5.552,-0.000 6.000,0.448 6.000,1.000 L6.000,5.000 C6.000,5.552 5.552,6.000 5.000,6.000 ZM4.000,2.000 L2.000,2.000 L2.000,4.000 L4.000,4.000 L4.000,2.000 ZM15.000,24.000 L47.000,24.000 C47.552,24.000 48.000,24.448 48.000,25.000 C48.000,25.552 47.552,26.000 47.000,26.000 L15.000,26.000 C14.448,26.000 14.000,25.552 14.000,25.000 C14.000,24.448 14.448,24.000 15.000,24.000 Z" class="cls-1"/>
</svg>
