<svg xmlns="http://www.w3.org/2000/svg" xmlns:xlink="http://www.w3.org/1999/xlink" preserveAspectRatio="xMidYMid" width="96" height="96" viewBox="0 0 48 48">
  <defs>
    <style>
      .cls-1 {
        fill: #1b1b1b;
        fill-rule: evenodd;
      }
    </style>
  </defs>
  <path d="M46.000,48.000 L18.000,48.000 C16.898,48.000 16.000,47.103 16.000,46.000 L16.000,32.000 C16.000,31.448 16.447,31.000 17.000,31.000 C17.553,31.000 18.000,31.448 18.000,32.000 L18.000,46.000 L46.000,46.000 L46.000,2.000 L18.000,2.000 L18.000,16.000 C18.000,16.552 17.553,17.000 17.000,17.000 C16.447,17.000 16.000,16.552 16.000,16.000 L16.000,2.000 C16.000,0.897 16.898,-0.000 18.000,-0.000 L46.000,-0.000 C47.103,-0.000 48.000,0.897 48.000,2.000 L48.000,46.000 C48.000,47.103 47.103,48.000 46.000,48.000 ZM24.331,15.743 C23.921,15.374 23.888,14.742 24.257,14.331 C24.627,13.920 25.259,13.887 25.669,14.257 L35.669,23.257 C35.675,23.262 35.677,23.271 35.684,23.277 C35.756,23.346 35.809,23.430 35.859,23.518 C35.875,23.547 35.902,23.571 35.915,23.602 C35.969,23.724 36.000,23.858 36.000,24.000 C36.000,24.142 35.969,24.276 35.915,24.398 C35.902,24.429 35.875,24.453 35.859,24.482 C35.809,24.570 35.756,24.654 35.684,24.723 C35.677,24.729 35.675,24.738 35.669,24.743 L25.669,33.743 C25.477,33.915 25.238,34.000 25.000,34.000 C24.727,34.000 24.454,33.888 24.257,33.669 C23.888,33.258 23.921,32.626 24.331,32.257 L32.394,25.000 L1.000,25.000 C0.447,25.000 -0.000,24.552 -0.000,24.000 C-0.000,23.448 0.447,23.000 1.000,23.000 L32.394,23.000 L24.331,15.743 Z" class="cls-1"/>
</svg>
