<svg xmlns="http://www.w3.org/2000/svg" xmlns:xlink="http://www.w3.org/1999/xlink" preserveAspectRatio="xMidYMid" width="96" height="96" viewBox="0 0 48 48">
  <defs>
    <style>
      .cls-1 {
        fill: #1b1b1b;
        fill-rule: evenodd;
      }
    </style>
  </defs>
  <path d="M46.000,48.000 L18.000,48.000 C16.898,48.000 16.000,47.103 16.000,46.000 L16.000,32.000 C16.000,31.448 16.447,31.000 17.000,31.000 C17.553,31.000 18.000,31.448 18.000,32.000 L18.000,46.000 L46.000,46.000 L46.000,2.000 L18.000,2.000 L18.000,16.000 C18.000,16.552 17.553,17.000 17.000,17.000 C16.447,17.000 16.000,16.552 16.000,16.000 L16.000,2.000 C16.000,0.897 16.898,-0.000 18.000,-0.000 L46.000,-0.000 C47.102,-0.000 48.000,0.897 48.000,2.000 L48.000,46.000 C48.000,47.103 47.102,48.000 46.000,48.000 ZM3.606,23.000 L35.000,23.000 C35.553,23.000 36.000,23.448 36.000,24.000 C36.000,24.552 35.553,25.000 35.000,25.000 L3.606,25.000 L11.669,32.257 C12.079,32.626 12.112,33.258 11.743,33.669 C11.546,33.888 11.273,34.000 11.000,34.000 C10.762,34.000 10.522,33.916 10.331,33.743 L0.331,24.743 C0.325,24.738 0.323,24.729 0.316,24.723 C0.244,24.654 0.191,24.570 0.141,24.482 C0.124,24.452 0.098,24.429 0.085,24.398 C0.031,24.276 -0.000,24.142 -0.000,24.000 C-0.000,23.858 0.031,23.724 0.085,23.602 C0.098,23.571 0.124,23.548 0.141,23.518 C0.191,23.430 0.244,23.346 0.316,23.277 C0.323,23.271 0.325,23.262 0.331,23.257 L10.331,14.257 C10.741,13.887 11.374,13.919 11.743,14.331 C12.112,14.742 12.079,15.374 11.669,15.743 L3.606,23.000 Z" class="cls-1"/>
</svg>
