<svg xmlns="http://www.w3.org/2000/svg" xmlns:xlink="http://www.w3.org/1999/xlink" preserveAspectRatio="xMidYMid" width="96" height="80" viewBox="0 0 48 40">
  <defs>
    <style>
      .cls-1 {
        fill: #1b1b1b;
        fill-rule: evenodd;
      }
    </style>
  </defs>
  <path d="M43.942,34.000 L3.502,34.000 L7.786,38.293 C8.176,38.684 8.176,39.316 7.786,39.707 C7.591,39.902 7.336,40.000 7.081,40.000 C6.825,40.000 6.570,39.902 6.375,39.707 L0.388,33.708 C0.295,33.616 0.222,33.505 0.171,33.382 C0.070,33.138 0.070,32.862 0.171,32.618 C0.222,32.495 0.295,32.384 0.388,32.292 L6.375,26.292 C6.765,25.901 7.397,25.901 7.786,26.292 C8.176,26.683 8.176,27.315 7.786,27.706 L3.502,32.000 L43.942,32.000 C45.080,32.000 46.005,31.102 46.005,30.000 L46.005,4.000 C46.005,2.898 45.080,2.000 43.942,2.000 L4.153,2.000 C3.015,2.000 2.000,2.898 2.000,4.000 L2.000,23.000 C2.000,23.553 1.644,24.000 1.092,24.000 C0.541,24.000 0.000,23.553 0.000,23.000 L0.000,4.000 C0.000,1.794 1.915,-0.000 4.153,-0.000 L43.942,-0.000 C46.180,-0.000 48.001,1.794 48.001,4.000 L48.001,30.000 C48.001,32.206 46.180,34.000 43.942,34.000 Z" class="cls-1"/>
</svg>
