<svg xmlns="http://www.w3.org/2000/svg" xmlns:xlink="http://www.w3.org/1999/xlink" preserveAspectRatio="xMidYMid" width="96" height="95.75" viewBox="0 0 48 47.875">
  <defs>
    <style>
      .cls-1 {
        fill: #1b1b1b;
        fill-rule: evenodd;
      }
    </style>
  </defs>
  <path d="M47.560,47.702 C47.393,47.815 47.197,47.873 47.000,47.873 C46.874,47.873 46.748,47.850 46.629,47.802 L31.989,41.962 L16.351,47.810 C16.342,47.814 16.332,47.812 16.323,47.815 C16.220,47.851 16.113,47.873 16.002,47.874 C16.002,47.874 16.001,47.874 16.000,47.874 C16.000,47.874 16.000,47.874 16.000,47.874 C16.000,47.874 16.000,47.874 15.999,47.874 C15.999,47.874 15.998,47.874 15.998,47.874 C15.881,47.873 15.769,47.848 15.662,47.809 C15.651,47.805 15.639,47.807 15.628,47.802 L0.628,41.818 C0.249,41.666 0.000,41.300 0.000,40.892 L0.000,0.998 C0.000,0.667 0.165,0.358 0.440,0.172 C0.714,-0.014 1.063,-0.051 1.372,0.072 L16.012,5.912 L31.648,0.064 C31.699,0.045 31.750,0.050 31.800,0.040 C31.806,0.039 31.811,0.039 31.817,0.038 C31.878,0.026 31.935,0.001 32.000,0.001 C32.065,0.001 32.122,0.026 32.184,0.038 C32.191,0.039 32.198,0.040 32.206,0.042 C32.261,0.053 32.317,0.050 32.371,0.072 L47.371,6.056 C47.751,6.208 48.000,6.574 48.000,6.982 L48.000,46.876 C48.000,47.207 47.835,47.517 47.560,47.702 ZM15.000,7.658 L2.000,2.471 L2.000,40.217 L15.000,45.403 L15.000,7.658 ZM17.000,45.437 L31.000,40.200 L31.000,2.437 L17.000,7.673 L17.000,45.437 ZM46.000,7.657 L33.000,2.471 L33.000,40.217 L46.000,45.403 L46.000,7.657 Z" class="cls-1"/>
</svg>
