<svg xmlns="http://www.w3.org/2000/svg" xmlns:xlink="http://www.w3.org/1999/xlink" preserveAspectRatio="xMidYMid" width="60" height="96" viewBox="0 0 30 48">
  <defs>
    <style>
      .cls-1 {
        fill: #1b1b1b;
        fill-rule: evenodd;
      }
    </style>
  </defs>
  <path d="M30.000,25.000 C29.999,32.934 23.804,39.431 16.000,39.949 L16.000,46.000 L24.000,46.000 C24.552,46.000 25.000,46.447 25.000,47.000 C25.000,47.553 24.552,48.000 24.000,48.000 L6.000,48.000 C5.448,48.000 5.000,47.553 5.000,47.000 C5.000,46.447 5.448,46.000 6.000,46.000 L14.000,46.000 L14.000,39.949 C6.196,39.431 0.001,32.934 0.000,25.000 C0.000,25.000 0.000,25.000 0.000,25.000 L0.000,19.000 C0.000,18.447 0.448,18.000 1.000,18.000 C1.552,18.000 2.000,18.447 2.000,19.000 L2.000,24.999 C2.000,32.168 7.831,38.000 15.000,38.000 C22.169,38.000 28.000,32.168 28.000,24.999 L28.000,19.000 C28.000,18.447 28.448,18.000 29.000,18.000 C29.552,18.000 30.000,18.447 30.000,19.000 L30.000,25.000 C30.000,25.000 30.000,25.000 30.000,25.000 ZM15.000,32.999 C11.140,32.999 8.000,29.859 8.000,26.000 L8.000,7.063 C8.000,7.052 8.006,7.043 8.006,7.033 C8.006,7.022 8.000,7.014 8.000,7.003 C8.000,3.142 11.140,-0.000 15.000,-0.000 C18.860,-0.000 22.000,3.142 22.000,7.003 C22.000,7.014 21.994,7.022 21.994,7.033 C21.994,7.043 22.000,7.052 22.000,7.063 L22.000,26.000 C22.000,29.859 18.860,32.999 15.000,32.999 ZM20.000,7.003 C20.000,4.244 17.757,2.000 15.000,2.000 C12.243,2.000 10.000,4.244 10.000,7.003 C10.000,7.014 9.994,7.022 9.994,7.033 C9.994,7.043 10.000,7.052 10.000,7.063 L10.000,26.000 C10.000,28.757 12.243,30.999 15.000,30.999 C17.757,30.999 20.000,28.757 20.000,26.000 L20.000,7.063 C20.000,7.052 20.006,7.043 20.006,7.033 C20.006,7.022 20.000,7.014 20.000,7.003 Z" class="cls-1"/>
</svg>
