<svg xmlns="http://www.w3.org/2000/svg" xmlns:xlink="http://www.w3.org/1999/xlink" preserveAspectRatio="xMidYMid" width="91.812" height="95.812" viewBox="0 0 45.906 47.906">
  <defs>
    <style>
      .cls-1 {
        fill: #1b1b1b;
        fill-rule: evenodd;
      }
    </style>
  </defs>
  <path d="M45.885,32.285 C45.659,35.974 41.732,38.923 36.923,38.923 C31.971,38.923 27.942,35.796 27.942,31.952 C27.942,28.092 31.971,24.951 36.923,24.951 C39.798,24.951 42.354,26.013 44.000,27.655 L44.000,2.214 L17.961,7.794 L17.961,40.936 C17.961,40.938 17.960,40.940 17.960,40.943 C17.955,44.783 13.928,47.905 8.979,47.905 C4.026,47.905 -0.004,44.779 -0.004,40.936 C-0.004,37.074 4.026,33.933 8.979,33.933 C11.820,33.933 14.353,34.970 16.000,36.581 L16.000,6.906 C16.000,6.435 16.294,6.109 16.754,6.011 L44.699,0.023 C44.729,0.016 44.757,0.025 44.787,0.021 C44.829,0.017 44.864,0.001 44.909,0.001 C44.938,0.001 44.964,0.015 44.993,0.018 C45.069,0.024 45.140,0.038 45.212,0.062 C45.264,0.079 45.313,0.097 45.361,0.122 C45.424,0.155 45.480,0.193 45.535,0.239 C45.581,0.277 45.622,0.316 45.661,0.361 C45.702,0.410 45.736,0.462 45.768,0.520 C45.801,0.579 45.827,0.638 45.847,0.703 C45.857,0.734 45.877,0.757 45.884,0.789 C45.892,0.825 45.882,0.858 45.886,0.894 C45.889,0.930 45.907,0.961 45.907,0.999 L45.907,32.178 C45.907,32.216 45.889,32.248 45.885,32.285 ZM8.979,35.929 C5.127,35.929 1.992,38.175 1.992,40.936 C1.992,43.678 5.127,45.909 8.979,45.909 C12.831,45.909 15.964,43.678 15.964,40.936 C15.964,38.175 12.831,35.929 8.979,35.929 ZM36.923,26.947 C33.071,26.947 29.938,29.192 29.938,31.952 C29.938,34.695 33.071,36.927 36.923,36.927 C40.776,36.927 43.911,34.695 43.911,31.952 C43.911,29.192 40.776,26.947 36.923,26.947 Z" class="cls-1"/>
</svg>
