<svg xmlns="http://www.w3.org/2000/svg" xmlns:xlink="http://www.w3.org/1999/xlink" preserveAspectRatio="xMidYMid" width="71.812" height="95.876" viewBox="0 0 35.906 47.938">
  <defs>
    <style>
      .cls-1 {
        fill: #1b1b1b;
        fill-rule: evenodd;
      }
    </style>
  </defs>
  <path d="M35.623,16.668 C35.245,17.070 34.614,17.090 34.214,16.714 L19.938,3.313 L19.938,39.942 C19.938,39.944 19.937,39.946 19.937,39.948 C19.937,39.955 19.938,39.962 19.938,39.969 C19.938,44.363 15.465,47.938 9.966,47.938 C4.468,47.938 -0.006,44.363 -0.006,39.969 C-0.006,35.554 4.468,31.962 9.966,31.962 C13.264,31.962 16.184,33.259 18.000,35.246 L18.000,0.938 C18.000,0.540 18.179,0.250 18.544,0.091 C18.907,-0.065 19.332,0.005 19.622,0.279 L35.577,15.257 C35.980,15.634 36.000,16.266 35.623,16.668 ZM9.966,33.959 C5.568,33.959 1.989,36.655 1.989,39.969 C1.989,43.262 5.568,45.941 9.966,45.941 C14.365,45.941 17.944,43.262 17.944,39.969 C17.944,36.655 14.365,33.959 9.966,33.959 Z" class="cls-1"/>
</svg>
