<svg xmlns="http://www.w3.org/2000/svg" xmlns:xlink="http://www.w3.org/1999/xlink" preserveAspectRatio="xMidYMid" width="96" height="93.812" viewBox="0 0 48 46.906">
  <defs>
    <style>
      .cls-1 {
        fill: #1b1b1b;
        fill-rule: evenodd;
      }
    </style>
  </defs>
  <path d="M45.692,43.525 L24.154,46.889 C24.103,46.897 24.053,46.900 24.004,46.901 C24.003,46.901 24.002,46.901 24.002,46.901 C24.001,46.901 24.001,46.901 24.000,46.901 C24.000,46.901 24.000,46.901 24.000,46.901 C24.000,46.901 24.000,46.901 24.000,46.901 C23.999,46.901 23.999,46.901 23.999,46.901 C23.998,46.901 23.997,46.901 23.997,46.901 C23.947,46.900 23.897,46.897 23.846,46.889 L2.349,43.532 C1.014,43.267 0.000,42.027 0.000,40.702 L0.000,2.261 C0.000,1.557 0.294,0.911 0.808,0.490 C1.322,0.068 2.015,-0.092 2.700,0.044 L24.000,3.766 L45.325,0.039 C45.989,-0.093 46.679,0.068 47.192,0.490 C47.706,0.911 48.000,1.557 48.000,2.261 L48.000,40.702 C48.000,42.027 46.986,43.267 45.692,43.525 ZM23.000,5.627 L2.331,2.015 C2.206,1.990 2.124,2.001 2.075,2.041 C2.027,2.081 2.000,2.159 2.000,2.261 L2.000,40.702 C2.000,41.070 2.339,41.486 2.698,41.557 L23.000,44.727 L23.000,5.627 ZM46.000,2.261 C46.000,2.159 45.973,2.081 45.925,2.041 C45.876,2.001 45.795,1.990 45.694,2.011 L25.000,5.627 L25.000,44.727 L45.343,41.550 C45.661,41.486 46.000,41.070 46.000,40.702 L46.000,2.261 ZM40.196,33.845 L30.196,35.851 C30.130,35.864 30.064,35.870 29.999,35.870 C29.532,35.870 29.114,35.541 29.020,35.064 C28.911,34.521 29.262,33.993 29.804,33.884 L39.804,31.879 C40.349,31.769 40.873,32.122 40.981,32.665 C41.089,33.208 40.738,33.736 40.196,33.845 ZM40.196,23.817 L30.196,25.823 C30.130,25.836 30.064,25.842 29.999,25.842 C29.532,25.842 29.114,25.513 29.020,25.036 C28.911,24.493 29.262,23.965 29.804,23.856 L39.804,21.851 C40.349,21.742 40.873,22.095 40.981,22.637 C41.089,23.180 40.738,23.709 40.196,23.817 ZM40.196,12.787 L30.196,14.792 C30.130,14.805 30.064,14.812 29.999,14.812 C29.532,14.812 29.114,14.482 29.020,14.006 C28.911,13.463 29.262,12.934 29.804,12.826 L39.804,10.820 C40.349,10.712 40.873,11.064 40.981,11.607 C41.089,12.150 40.738,12.678 40.196,12.787 ZM8.196,10.820 L18.196,12.826 C18.738,12.934 19.089,13.463 18.981,14.006 C18.886,14.482 18.468,14.812 18.001,14.812 C17.936,14.812 17.870,14.805 17.804,14.792 L7.804,12.787 C7.262,12.678 6.911,12.150 7.019,11.607 C7.127,11.064 7.652,10.712 8.196,10.820 ZM8.196,21.851 L18.196,23.856 C18.738,23.965 19.089,24.493 18.981,25.036 C18.886,25.513 18.468,25.842 18.001,25.842 C17.936,25.842 17.870,25.836 17.804,25.823 L7.804,23.817 C7.262,23.709 6.911,23.180 7.019,22.637 C7.127,22.095 7.652,21.741 8.196,21.851 ZM8.196,31.879 L18.196,33.884 C18.738,33.993 19.089,34.521 18.981,35.064 C18.886,35.541 18.468,35.870 18.001,35.870 C17.936,35.870 17.870,35.864 17.804,35.851 L7.804,33.845 C7.262,33.736 6.911,33.208 7.019,32.665 C7.127,32.122 7.652,31.768 8.196,31.879 Z" class="cls-1"/>
</svg>
