<svg xmlns="http://www.w3.org/2000/svg" xmlns:xlink="http://www.w3.org/1999/xlink" preserveAspectRatio="xMidYMid" width="64" height="96" viewBox="0 0 32 48">
  <defs>
    <style>
      .cls-1 {
        fill: #1b1b1b;
        fill-rule: evenodd;
      }
    </style>
  </defs>
  <path d="M30.995,48.000 L20.975,48.000 C20.422,48.000 19.973,47.553 19.973,47.000 L19.973,1.000 C19.973,0.447 20.422,-0.000 20.975,-0.000 L30.995,-0.000 C31.548,-0.000 31.997,0.447 31.997,1.000 L31.997,47.000 C31.997,47.553 31.548,48.000 30.995,48.000 ZM29.993,2.000 L21.977,2.000 L21.977,46.000 L29.993,46.000 L29.993,2.000 ZM11.022,48.000 L1.003,48.000 C0.449,48.000 0.001,47.553 0.001,47.000 L0.001,1.000 C0.001,0.447 0.449,-0.000 1.003,-0.000 L11.022,-0.000 C11.576,-0.000 12.024,0.447 12.024,1.000 L12.024,47.000 C12.024,47.553 11.576,48.000 11.022,48.000 ZM10.020,2.000 L2.005,2.000 L2.005,46.000 L10.020,46.000 L10.020,2.000 Z" class="cls-1"/>
</svg>
