<svg xmlns="http://www.w3.org/2000/svg" xmlns:xlink="http://www.w3.org/1999/xlink" preserveAspectRatio="xMidYMid" width="96" height="76" viewBox="0 0 48 38">
  <defs>
    <style>
      .cls-1 {
        fill: #1b1b1b;
        fill-rule: evenodd;
      }
    </style>
  </defs>
  <path d="M44.907,38.000 L3.090,38.000 C1.443,38.000 -0.000,36.654 -0.000,35.000 L-0.000,3.000 C-0.000,1.346 1.443,-0.000 3.090,-0.000 L44.907,-0.000 C46.554,-0.000 48.000,1.346 48.000,3.000 L48.000,35.000 C48.000,36.654 46.554,38.000 44.907,38.000 ZM46.000,3.000 C46.000,2.449 45.456,2.000 44.907,2.000 L3.090,2.000 C2.540,2.000 2.000,2.449 2.000,3.000 L2.000,25.055 L14.384,14.245 C14.780,13.900 15.372,13.921 15.742,14.293 L27.079,25.680 L34.353,20.200 C34.752,19.899 35.314,19.941 35.663,20.302 L46.000,30.944 L46.000,3.000 ZM46.000,33.808 L34.848,22.327 L27.582,27.800 C27.187,28.098 26.631,28.059 26.281,27.707 L14.990,16.366 L2.000,27.705 L2.000,35.000 C2.000,35.551 2.540,36.000 3.090,36.000 L44.907,36.000 C45.456,36.000 46.000,35.551 46.000,35.000 L46.000,33.808 ZM31.964,12.002 C31.964,10.347 33.305,9.000 34.954,9.000 C36.600,9.000 37.937,10.347 37.937,12.002 C37.937,13.655 36.600,15.000 34.954,15.000 C33.305,15.000 31.964,13.655 31.964,12.002 ZM35.946,12.002 C35.946,11.450 35.501,11.000 34.954,11.000 C34.403,11.000 33.955,11.450 33.955,12.002 C33.955,12.552 34.403,13.000 34.954,13.000 C35.501,13.000 35.946,12.552 35.946,12.002 Z" class="cls-1"/>
</svg>
