<svg xmlns="http://www.w3.org/2000/svg" xmlns:xlink="http://www.w3.org/1999/xlink" preserveAspectRatio="xMidYMid" width="96" height="96" viewBox="0 0 48 48">
  <defs>
    <style>
      .cls-1 {
        fill: #1b1b1b;
        fill-rule: evenodd;
      }
    </style>
  </defs>
  <path d="M26.000,48.000 C13.869,48.000 4.000,38.131 4.000,26.000 C4.000,25.448 4.448,25.000 5.000,25.000 C5.552,25.000 6.000,25.448 6.000,26.000 C6.000,37.028 14.972,46.000 26.000,46.000 C37.028,46.000 46.000,37.028 46.000,26.000 C46.000,14.972 37.028,6.000 26.000,6.000 C25.448,6.000 25.000,5.552 25.000,5.000 C25.000,4.448 25.448,4.000 26.000,4.000 C38.131,4.000 48.000,13.869 48.000,26.000 C48.000,38.131 38.131,48.000 26.000,48.000 ZM21.980,20.980 C21.980,21.532 21.533,21.980 20.981,21.980 L1.142,21.980 C1.096,21.986 1.048,21.990 1.000,21.990 C0.448,21.990 0.000,21.552 0.000,21.000 L0.000,20.980 L0.000,20.979 L0.000,20.978 C0.011,9.422 9.423,0.011 20.980,-0.000 C20.980,-0.000 20.980,-0.000 20.980,-0.000 L20.981,-0.000 C20.982,-0.000 20.986,-0.000 20.990,-0.000 L21.000,-0.000 L21.000,-0.000 C21.552,-0.000 22.000,0.448 22.000,0.999 C22.000,1.067 21.993,1.134 21.980,1.198 L21.980,20.980 ZM19.980,2.027 C10.319,2.541 2.542,10.318 2.027,19.980 L19.980,19.980 L19.980,2.027 Z" class="cls-1"/>
</svg>
