<svg xmlns="http://www.w3.org/2000/svg" xmlns:xlink="http://www.w3.org/1999/xlink" preserveAspectRatio="xMidYMid" width="95.688" height="95.876" viewBox="0 0 47.844 47.938">
  <defs>
    <style>
      .cls-1 {
        fill: #1b1b1b;
        fill-rule: evenodd;
      }
    </style>
  </defs>
  <path d="M47.150,19.300 C45.720,19.745 44.232,19.970 42.731,19.970 C41.247,19.970 39.796,19.754 38.415,19.335 L28.236,29.536 C30.116,33.779 30.456,38.630 29.026,43.241 C28.922,43.575 28.652,43.830 28.312,43.914 C28.233,43.933 28.154,43.943 28.074,43.943 C27.813,43.943 27.558,43.840 27.369,43.650 L16.527,32.787 L1.699,47.646 C1.504,47.841 1.249,47.939 0.994,47.939 C0.739,47.939 0.484,47.841 0.289,47.646 C-0.100,47.256 -0.100,46.624 0.289,46.233 L15.118,31.375 L4.277,20.513 C4.030,20.266 3.931,19.907 4.014,19.567 C4.098,19.228 4.352,18.957 4.686,18.853 C6.564,18.268 8.516,17.971 10.488,17.971 C13.244,17.971 15.905,18.558 18.351,19.643 L28.568,9.409 C27.727,6.617 27.682,3.595 28.584,0.692 C28.688,0.358 28.959,0.103 29.298,0.020 C29.633,-0.064 29.995,0.035 30.241,0.283 L47.559,17.639 C47.807,17.887 47.906,18.246 47.822,18.585 C47.738,18.925 47.483,19.196 47.150,19.300 ZM18.243,21.800 C18.181,21.780 18.125,21.749 18.066,21.716 C15.731,20.585 13.159,19.969 10.488,19.969 C9.284,19.969 8.090,20.092 6.919,20.335 L27.547,41.003 C28.745,35.253 27.005,29.280 22.816,25.082 C21.460,23.723 19.912,22.632 18.243,21.800 ZM20.216,20.600 C21.660,21.440 23.014,22.455 24.226,23.668 C25.434,24.879 26.452,26.226 27.285,27.663 L36.393,18.535 C34.877,17.816 33.472,16.849 32.251,15.626 C31.021,14.393 30.070,12.969 29.353,11.447 L20.216,20.600 ZM30.087,2.955 C29.388,7.041 30.687,11.232 33.661,14.213 C36.082,16.638 39.303,17.973 42.731,17.973 C43.458,17.973 44.179,17.912 44.891,17.791 L30.087,2.955 Z" class="cls-1"/>
</svg>
