<svg xmlns="http://www.w3.org/2000/svg" xmlns:xlink="http://www.w3.org/1999/xlink" preserveAspectRatio="xMidYMid" width="84" height="96" viewBox="0 0 42 48">
  <defs>
    <style>
      .cls-1 {
        fill: #1b1b1b;
        fill-rule: evenodd;
      }
    </style>
  </defs>
  <path d="M2.059,48.000 C0.847,48.000 -0.000,47.032 -0.000,45.648 L-0.000,2.321 C-0.000,0.954 0.828,-0.000 2.014,-0.000 C2.461,-0.000 2.917,0.137 3.370,0.408 L40.749,22.785 C41.549,23.267 42.000,23.983 41.990,24.755 C41.978,25.525 41.504,26.229 40.691,26.686 L3.371,47.627 C2.934,47.874 2.491,48.000 2.059,48.000 ZM2.033,2.001 C2.034,2.027 1.999,2.127 1.999,2.321 L1.999,45.648 C1.999,45.846 2.038,45.957 2.062,46.000 C2.095,45.999 2.205,45.988 2.391,45.884 L39.713,24.941 C39.912,24.830 39.983,24.729 39.993,24.703 C39.976,24.722 39.912,24.616 39.721,24.501 L2.343,2.125 C2.179,2.026 2.076,2.005 2.033,2.001 Z" class="cls-1"/>
</svg>
