<svg xmlns="http://www.w3.org/2000/svg" xmlns:xlink="http://www.w3.org/1999/xlink" preserveAspectRatio="xMidYMid" width="95.812" height="96" viewBox="0 0 47.906 48">
  <defs>
    <style>
      .cls-1 {
        fill: #1b1b1b;
        fill-rule: evenodd;
      }
    </style>
  </defs>
  <path d="M47.579,16.734 C47.177,17.111 46.545,17.092 46.168,16.689 L34.000,4.000 L34.000,40.000 C34.000,40.144 33.962,40.280 33.900,40.406 C33.645,44.626 29.285,48.000 23.946,48.000 C18.443,48.000 13.967,44.420 13.967,40.019 C13.967,35.599 18.443,32.003 23.946,32.003 C27.254,32.003 30.184,33.308 32.000,35.306 L32.000,1.000 C32.000,0.590 32.178,0.302 32.559,0.151 C32.939,-0.000 33.375,0.097 33.654,0.396 L47.624,15.321 C48.001,15.724 47.981,16.356 47.579,16.734 ZM23.946,34.002 C19.544,34.002 15.963,36.702 15.963,40.019 C15.963,43.317 19.544,46.000 23.946,46.000 C28.347,46.000 31.928,43.317 31.928,40.019 C31.928,36.702 28.347,34.002 23.946,34.002 ZM22.948,18.005 L0.995,18.005 C0.444,18.005 -0.003,17.557 -0.003,17.005 C-0.003,16.453 0.444,16.005 0.995,16.005 L22.948,16.005 C23.499,16.005 23.946,16.453 23.946,17.005 C23.946,17.557 23.499,18.005 22.948,18.005 ZM22.948,10.006 L0.995,10.006 C0.444,10.006 -0.003,9.558 -0.003,9.006 C-0.003,8.454 0.444,8.006 0.995,8.006 L22.948,8.006 C23.499,8.006 23.946,8.454 23.946,9.006 C23.946,9.558 23.499,10.006 22.948,10.006 ZM22.948,2.007 L0.995,2.007 C0.444,2.007 -0.003,1.559 -0.003,1.007 C-0.003,0.455 0.444,0.007 0.995,0.007 L22.948,0.007 C23.499,0.007 23.946,0.455 23.946,1.007 C23.946,1.559 23.499,2.007 22.948,2.007 Z" class="cls-1"/>
</svg>
