<svg xmlns="http://www.w3.org/2000/svg" xmlns:xlink="http://www.w3.org/1999/xlink" preserveAspectRatio="xMidYMid" width="96" height="90" viewBox="0 0 48 45">
  <defs>
    <style>
      .cls-1 {
        fill: #1b1b1b;
        fill-rule: evenodd;
      }
    </style>
  </defs>
  <path d="M47.000,21.957 L45.000,21.957 L45.000,42.508 C45.000,44.344 43.878,44.998 42.828,44.998 L6.105,44.998 C5.473,44.998 4.000,44.756 4.000,42.508 L4.000,21.957 L1.000,21.957 C0.448,21.957 0.000,21.508 0.000,20.955 L0.000,13.534 C0.000,12.096 1.653,11.000 3.000,11.000 L9.655,11.000 C7.831,9.641 6.467,7.623 6.467,5.011 C6.467,0.002 10.983,0.002 12.467,0.002 C14.326,0.002 19.885,1.838 24.480,9.923 C29.070,1.867 34.610,0.002 36.467,0.002 C37.951,0.002 42.467,0.002 42.467,5.011 C42.467,7.623 41.102,9.641 39.279,11.000 L46.000,11.000 C46.479,11.000 48.000,11.124 48.000,13.534 L48.000,20.955 C48.000,21.508 47.552,21.957 47.000,21.957 ZM25.000,42.995 L42.828,42.995 C42.895,42.995 42.931,42.986 42.943,42.983 C42.938,42.973 43.000,42.844 43.000,42.508 L43.000,21.957 L25.000,21.957 L25.000,42.995 ZM6.000,42.508 C6.000,42.786 6.031,42.929 6.052,42.994 C6.054,42.994 6.056,42.994 6.058,42.994 C6.070,42.994 6.086,42.995 6.105,42.995 L23.000,42.995 L23.000,21.957 L6.000,21.957 L6.000,42.508 ZM2.975,12.940 C2.587,12.940 2.037,13.344 1.999,13.544 L2.000,20.000 L5.000,20.000 L23.000,20.000 L23.000,12.941 L15.865,12.941 C15.742,12.994 15.609,13.026 15.467,13.026 C15.118,13.026 14.752,12.992 14.380,12.941 L2.975,12.940 ZM12.467,2.006 C9.998,2.006 8.467,2.508 8.467,5.011 C8.467,8.781 12.446,10.780 15.008,11.000 L22.788,11.000 C18.594,3.581 13.636,2.006 12.467,2.006 ZM40.467,5.011 C40.467,2.508 38.936,2.006 36.467,2.006 C35.298,2.006 30.339,3.581 26.146,11.000 L33.925,11.000 C36.487,10.780 40.467,8.781 40.467,5.011 ZM46.000,13.534 C46.000,13.199 45.958,13.023 45.929,12.942 L34.547,12.942 C34.177,12.992 33.813,13.026 33.467,13.026 C33.326,13.026 33.192,12.995 33.070,12.942 L25.000,12.941 L25.000,20.000 L44.000,20.000 L46.000,20.000 L46.000,13.534 Z" class="cls-1"/>
</svg>
