<svg xmlns="http://www.w3.org/2000/svg" xmlns:xlink="http://www.w3.org/1999/xlink" preserveAspectRatio="xMidYMid" width="96" height="96" viewBox="0 0 48 48">
  <defs>
    <style>
      .cls-1 {
        fill: #1b1b1b;
        fill-rule: evenodd;
      }
    </style>
  </defs>
  <path d="M45.467,38.000 L38.000,38.000 L38.000,47.000 C38.000,47.552 37.553,48.000 37.000,48.000 L11.000,48.000 C10.447,48.000 10.000,47.552 10.000,47.000 L10.000,38.000 L2.533,38.000 C1.137,38.000 -0.000,36.878 -0.000,35.500 L-0.000,14.500 C-0.000,13.122 1.137,12.000 2.533,12.000 L10.000,12.000 L10.000,1.000 C10.000,0.448 10.447,-0.000 11.000,-0.000 L37.000,-0.000 C37.553,-0.000 38.000,0.448 38.000,1.000 L38.000,12.000 L45.467,12.000 C46.863,12.000 48.000,13.122 48.000,14.500 L48.000,35.500 C48.000,36.878 46.863,38.000 45.467,38.000 ZM12.000,46.000 L36.000,46.000 L36.000,28.000 L12.000,28.000 L12.000,46.000 ZM36.000,2.000 L12.000,2.000 L12.000,12.000 L36.000,12.000 L36.000,2.000 ZM46.000,14.500 C46.000,14.229 45.756,14.000 45.467,14.000 L37.000,14.000 L11.000,14.000 L2.533,14.000 C2.244,14.000 2.000,14.229 2.000,14.500 L2.000,35.500 C2.000,35.771 2.244,36.000 2.533,36.000 L10.000,36.000 L10.000,27.000 C10.000,26.448 10.447,26.000 11.000,26.000 L37.000,26.000 C37.553,26.000 38.000,26.448 38.000,27.000 L38.000,36.000 L45.467,36.000 C45.756,36.000 46.000,35.771 46.000,35.500 L46.000,14.500 ZM39.000,20.000 L37.000,20.000 C36.447,20.000 36.000,19.552 36.000,19.000 C36.000,18.448 36.447,18.000 37.000,18.000 L39.000,18.000 C39.553,18.000 40.000,18.448 40.000,19.000 C40.000,19.552 39.553,20.000 39.000,20.000 Z" class="cls-1"/>
</svg>
