<svg xmlns="http://www.w3.org/2000/svg" xmlns:xlink="http://www.w3.org/1999/xlink" preserveAspectRatio="xMidYMid" width="95.25" height="96" viewBox="0 0 47.625 48">
  <defs>
    <style>
      .cls-1 {
        fill: #1b1b1b;
        fill-rule: evenodd;
      }
    </style>
  </defs>
  <path d="M40.984,17.482 L45.397,21.699 C47.022,23.337 47.022,25.972 45.416,27.591 L26.062,46.792 C25.262,47.597 24.210,48.000 23.157,48.000 C22.102,48.000 21.046,47.596 20.242,46.786 L1.199,27.591 C-0.405,25.972 -0.405,23.337 1.199,21.718 L4.574,18.076 C5.412,17.230 6.442,16.864 7.417,17.046 C8.395,17.227 9.225,17.939 9.695,18.998 C9.732,19.089 11.706,23.998 15.290,23.998 C19.508,23.998 22.813,20.832 22.813,16.791 C22.813,13.155 17.871,11.123 17.821,11.103 C16.732,10.612 16.026,9.775 15.845,8.789 C15.666,7.805 16.029,6.769 16.842,5.949 L20.212,2.245 C21.017,1.432 22.052,1.000 23.155,1.000 C24.257,1.000 25.292,1.432 26.068,2.215 L30.269,6.681 C31.246,2.846 34.694,-0.000 38.798,-0.000 C43.657,-0.000 47.611,3.986 47.611,8.884 C47.611,13.022 44.788,16.498 40.984,17.482 ZM38.798,2.000 C35.032,2.000 31.968,5.088 31.968,8.884 C31.968,8.890 31.965,8.894 31.965,8.900 C31.964,8.966 31.940,9.028 31.926,9.093 C31.912,9.157 31.909,9.223 31.884,9.281 C31.878,9.296 31.864,9.308 31.857,9.323 C31.806,9.426 31.744,9.522 31.663,9.601 C31.660,9.603 31.660,9.606 31.657,9.609 C31.632,9.633 31.599,9.642 31.572,9.663 C31.499,9.720 31.426,9.775 31.339,9.810 C31.272,9.837 31.202,9.841 31.132,9.852 C31.079,9.861 31.031,9.884 30.976,9.884 C30.971,9.884 30.966,9.881 30.961,9.881 C30.881,9.880 30.805,9.854 30.727,9.833 C30.679,9.821 30.628,9.820 30.583,9.801 C30.550,9.787 30.523,9.757 30.491,9.738 C30.411,9.692 30.330,9.646 30.266,9.579 C30.263,9.576 30.258,9.575 30.255,9.571 L24.646,3.610 C23.880,2.837 22.447,2.819 21.645,3.628 L18.275,7.332 C17.895,7.716 17.736,8.094 17.796,8.427 C17.857,8.760 18.141,9.056 18.595,9.261 C18.812,9.348 24.797,11.816 24.797,16.791 C24.797,21.954 20.621,25.998 15.290,25.998 C10.351,25.998 7.966,20.027 7.867,19.772 C7.682,19.359 7.388,19.074 7.058,19.012 C6.728,18.948 6.351,19.111 6.000,19.465 L2.625,23.107 C1.771,23.971 1.771,25.338 2.603,26.177 L21.644,45.372 C22.477,46.211 23.833,46.210 24.665,45.371 L44.019,26.171 C44.846,25.338 44.846,23.971 44.013,23.131 L38.115,17.496 C38.112,17.493 38.111,17.488 38.108,17.485 C38.045,17.423 38.002,17.346 37.957,17.269 C37.936,17.233 37.904,17.203 37.887,17.165 C37.871,17.127 37.872,17.082 37.860,17.041 C37.836,16.956 37.810,16.872 37.809,16.784 C37.808,16.779 37.806,16.775 37.806,16.770 C37.806,16.720 37.827,16.678 37.834,16.630 C37.845,16.552 37.851,16.475 37.880,16.402 C37.910,16.326 37.959,16.265 38.005,16.200 C38.032,16.162 38.045,16.117 38.078,16.082 C38.081,16.079 38.086,16.078 38.089,16.075 C38.147,16.014 38.221,15.974 38.292,15.930 C38.332,15.906 38.365,15.870 38.407,15.852 C38.441,15.838 38.480,15.839 38.516,15.828 C38.605,15.801 38.693,15.774 38.785,15.773 C38.790,15.773 38.793,15.770 38.798,15.770 C42.564,15.770 45.627,12.681 45.627,8.884 C45.627,5.088 42.564,2.000 38.798,2.000 Z" class="cls-1"/>
</svg>
