<svg xmlns="http://www.w3.org/2000/svg" xmlns:xlink="http://www.w3.org/1999/xlink" preserveAspectRatio="xMidYMid" width="96" height="96" viewBox="0 0 48 48">
  <defs>
    <style>
      .cls-1 {
        fill: #1b1b1b;
        fill-rule: evenodd;
      }
    </style>
  </defs>
  <path d="M24.000,48.000 C10.767,48.000 0.000,37.233 0.000,24.000 C0.000,10.767 10.767,-0.000 24.000,-0.000 C37.233,-0.000 48.000,10.767 48.000,24.000 C48.000,37.233 37.233,48.000 24.000,48.000 ZM24.000,2.000 C11.869,2.000 2.000,11.869 2.000,24.000 C2.000,36.131 11.869,46.000 24.000,46.000 C36.131,46.000 46.000,36.131 46.000,24.000 C46.000,11.869 36.131,2.000 24.000,2.000 ZM28.152,24.020 C24.805,26.731 24.987,29.790 24.997,29.919 C25.037,30.467 24.627,30.948 24.080,30.993 C24.053,30.995 24.025,30.996 23.998,30.996 C23.485,30.996 23.050,30.607 23.004,30.088 C22.989,29.918 22.683,25.876 26.893,22.467 C28.411,21.237 29.002,20.044 29.002,18.213 C29.002,15.339 26.758,13.000 24.000,13.000 C21.197,13.000 19.002,15.197 19.002,18.002 C19.002,18.555 18.554,19.002 18.002,19.002 C17.450,19.002 17.002,18.555 17.002,18.002 C17.002,14.075 20.076,11.000 24.000,11.000 C27.861,11.000 31.002,14.235 31.002,18.213 C31.002,20.665 30.150,22.401 28.152,24.020 ZM24.000,34.000 C25.103,34.000 26.000,34.898 26.000,36.000 C26.000,37.102 25.103,38.000 24.000,38.000 C22.897,38.000 22.000,37.102 22.000,36.000 C22.000,34.898 22.897,34.000 24.000,34.000 Z" class="cls-1"/>
</svg>
