<svg xmlns="http://www.w3.org/2000/svg" xmlns:xlink="http://www.w3.org/1999/xlink" preserveAspectRatio="xMidYMid" width="96" height="72" viewBox="0 0 48 36">
  <defs>
    <style>
      .cls-1 {
        fill: #1b1b1b;
        fill-rule: evenodd;
      }
    </style>
  </defs>
  <path d="M46.310,36.000 C45.922,36.000 45.533,35.872 45.153,35.621 L29.004,25.956 L29.004,34.039 C29.004,34.433 29.004,34.700 28.960,34.943 C28.817,35.723 28.234,36.000 27.778,36.000 L27.778,36.000 C27.382,36.000 27.039,35.809 26.756,35.622 L0.999,19.140 C0.356,18.715 -0.000,18.098 0.010,17.436 C0.018,16.777 0.391,16.172 1.031,15.775 L26.769,0.336 C27.034,0.173 27.367,-0.000 27.753,-0.000 C28.214,-0.000 28.804,0.278 28.955,1.063 C29.004,1.318 29.004,1.601 29.004,1.956 L29.004,10.060 L45.165,0.337 C45.526,0.114 45.902,-0.000 46.275,-0.000 C47.106,-0.000 48.000,0.619 48.000,1.980 L48.000,34.039 C48.000,35.386 47.124,36.000 46.310,36.000 ZM28.004,23.192 C28.181,23.192 28.359,23.240 28.517,23.334 L46.001,33.799 L46.001,2.168 L28.519,12.685 C28.211,12.872 27.824,12.877 27.512,12.698 C27.198,12.522 27.004,12.189 27.004,11.828 L27.004,2.527 L2.097,17.468 L27.004,33.406 L27.004,24.192 C27.004,23.832 27.197,23.500 27.511,23.322 C27.664,23.235 27.834,23.192 28.004,23.192 Z" class="cls-1"/>
</svg>
