<svg xmlns="http://www.w3.org/2000/svg" xmlns:xlink="http://www.w3.org/1999/xlink" preserveAspectRatio="xMidYMid" width="96" height="91.812" viewBox="0 0 48 45.906">
  <defs>
    <style>
      .cls-1 {
        fill: #2CC9D7;
        fill-rule: evenodd;
      }
    </style>
  </defs>
  <path d="M47.707,11.679 L37.707,21.659 C37.512,21.854 37.256,21.951 37.000,21.951 C36.744,21.951 36.488,21.854 36.293,21.659 C35.902,21.269 35.902,20.638 36.293,20.248 L44.652,11.906 L31.000,11.906 C21.405,11.906 14.000,19.764 14.000,29.339 C14.000,29.890 13.553,30.337 13.000,30.337 C12.447,30.337 12.000,29.890 12.000,29.339 C12.000,18.663 20.703,9.978 31.400,9.978 L44.588,9.978 L36.293,1.702 C35.902,1.312 35.902,0.680 36.293,0.291 C36.684,-0.099 37.316,-0.099 37.707,0.291 L47.707,10.268 C47.895,10.455 48.000,10.709 48.000,10.974 C48.000,11.239 47.895,11.492 47.707,11.679 ZM13.000,11.906 L2.000,11.906 L2.000,43.909 L43.000,43.906 L43.000,24.906 C43.000,24.354 43.381,23.949 43.934,23.949 C44.486,23.949 44.934,24.396 44.934,24.947 L44.934,43.909 C44.934,45.009 44.036,45.905 42.934,45.905 L2.000,45.905 C0.897,45.905 -0.000,45.009 -0.000,43.909 L-0.000,11.974 C-0.000,10.873 0.897,9.978 2.000,9.978 L13.267,9.978 C13.819,9.978 14.267,10.424 14.267,10.976 C14.267,11.527 13.553,11.906 13.000,11.906 Z" class="cls-1"/>
</svg>
