<svg xmlns="http://www.w3.org/2000/svg" xmlns:xlink="http://www.w3.org/1999/xlink" preserveAspectRatio="xMidYMid" width="96" height="96" viewBox="0 0 48 48">
  <defs>
    <style>
      .cls-1 {
        fill: #1b1b1b;
        fill-rule: evenodd;
      }
    </style>
  </defs>
  <path d="M40.999,14.000 C38.624,14.000 36.528,12.805 35.262,10.990 L13.618,21.822 C13.846,22.511 14.000,23.235 14.000,24.000 C14.000,24.770 13.845,25.497 13.615,26.190 L35.259,37.014 C36.524,35.197 38.622,34.000 40.999,34.000 C44.859,34.000 48.000,37.140 48.000,41.000 C48.000,44.860 44.859,48.000 40.999,48.000 C37.140,48.000 34.000,44.860 34.000,41.000 C34.000,40.232 34.155,39.505 34.384,38.813 L12.739,27.989 C11.473,29.804 9.377,31.000 7.001,31.000 C3.141,31.000 0.000,27.860 0.000,24.000 C0.000,20.140 3.141,17.000 7.001,17.000 C9.382,17.000 11.482,18.200 12.747,20.021 L34.386,9.192 C34.155,8.499 34.000,7.770 34.000,7.000 C34.000,3.140 37.140,0.000 40.999,0.000 C44.859,0.000 48.000,3.140 48.000,7.000 C48.000,10.860 44.859,14.000 40.999,14.000 ZM40.999,46.000 C43.756,46.000 46.000,43.757 46.000,41.000 C46.000,38.243 43.756,36.000 40.999,36.000 C38.243,36.000 36.000,38.243 36.000,41.000 C36.000,43.757 38.243,46.000 40.999,46.000 ZM7.001,19.000 C4.244,19.000 2.000,21.243 2.000,24.000 C2.000,26.757 4.244,29.000 7.001,29.000 C9.757,29.000 12.000,26.757 12.000,24.000 C12.000,21.243 9.757,19.000 7.001,19.000 ZM40.999,2.000 C38.243,2.000 36.000,4.243 36.000,7.000 C36.000,9.757 38.243,12.000 40.999,12.000 C43.756,12.000 46.000,9.757 46.000,7.000 C46.000,4.243 43.756,2.000 40.999,2.000 Z" class="cls-1"/>
</svg>
