<svg xmlns="http://www.w3.org/2000/svg" xmlns:xlink="http://www.w3.org/1999/xlink" preserveAspectRatio="xMidYMid" width="95.812" height="87.812" viewBox="0 0 47.906 43.906">
  <defs>
    <style>
      .cls-1 {
        fill: #1b1b1b;
        fill-rule: evenodd;
      }
    </style>
  </defs>
  <path d="M47.611,7.689 L41.627,13.677 C41.432,13.872 41.177,13.969 40.921,13.969 C40.666,13.969 40.411,13.872 40.216,13.677 C39.826,13.287 39.826,12.656 40.216,12.266 L44.573,7.906 L38.000,7.906 C36.637,7.906 35.015,8.658 34.261,9.791 L17.313,35.220 C16.185,36.910 14.301,37.918 12.272,37.918 L1.013,37.918 C0.462,37.918 0.015,37.472 0.015,36.920 C0.015,36.369 0.462,35.922 1.013,35.922 L12.272,35.922 C13.633,35.922 14.897,35.246 15.652,34.113 L23.906,21.729 L15.459,9.745 C14.695,8.638 13.335,7.906 12.000,7.906 L1.000,7.906 C0.449,7.906 -0.004,7.535 -0.004,6.984 C-0.004,6.432 0.442,5.986 0.993,5.986 L12.110,5.986 C14.100,5.986 15.964,6.964 17.095,8.603 L25.093,19.949 L32.601,8.684 C33.725,6.995 35.609,5.986 37.642,5.986 L44.497,5.986 L40.214,1.702 C39.824,1.312 39.824,0.681 40.214,0.291 C40.604,-0.099 41.235,-0.099 41.625,0.291 L47.609,6.277 C47.702,6.369 47.775,6.480 47.826,6.603 C47.875,6.722 47.900,6.849 47.901,6.976 C47.901,6.979 47.903,6.981 47.903,6.984 C47.903,7.279 47.796,7.516 47.618,7.678 C47.615,7.682 47.614,7.686 47.611,7.689 ZM29.561,27.015 L34.263,34.116 C35.015,35.246 36.279,35.922 37.642,35.922 L44.497,35.922 L40.214,31.639 C39.824,31.249 39.824,30.617 40.214,30.228 C40.604,29.838 41.235,29.838 41.625,30.228 L47.609,36.213 C47.702,36.306 47.775,36.417 47.826,36.539 C47.876,36.659 47.901,36.787 47.902,36.914 C47.902,36.916 47.903,36.918 47.903,36.920 C47.903,36.923 47.901,36.925 47.901,36.928 C47.900,37.055 47.876,37.182 47.826,37.301 C47.775,37.424 47.702,37.535 47.609,37.627 L41.627,43.613 C41.432,43.808 41.177,43.906 40.921,43.906 C40.666,43.906 40.411,43.808 40.216,43.613 C39.826,43.223 39.826,42.592 40.216,42.202 L44.497,37.918 L37.642,37.918 C35.609,37.918 33.725,36.910 32.601,35.219 L27.897,28.116 C27.593,27.657 27.719,27.038 28.179,26.733 C28.637,26.428 29.256,26.554 29.561,27.015 Z" class="cls-1"/>
</svg>
