<svg xmlns="http://www.w3.org/2000/svg" xmlns:xlink="http://www.w3.org/1999/xlink" preserveAspectRatio="xMidYMid" width="96" height="88" viewBox="0 0 48 44">
  <defs>
    <style>
      .cls-1 {
        fill: #1b1b1b;
        fill-rule: evenodd;
      }
    </style>
  </defs>
  <path d="M45.000,34.000 L18.481,34.000 L10.781,43.624 C10.587,43.867 10.298,44.000 10.000,44.000 C9.890,44.000 9.777,43.981 9.669,43.944 C9.269,43.803 9.000,43.425 9.000,43.000 L9.000,34.000 L3.000,34.000 C1.346,34.000 -0.000,32.654 -0.000,31.000 L-0.000,3.000 C-0.000,1.346 1.346,0.000 3.000,0.000 L45.000,0.000 C46.654,0.000 48.000,1.346 48.000,3.000 L48.000,31.000 C48.000,32.654 46.654,34.000 45.000,34.000 ZM46.000,3.000 C46.000,2.449 45.552,2.000 45.000,2.000 L3.000,2.000 C2.448,2.000 2.000,2.449 2.000,3.000 L2.000,31.000 C2.000,31.551 2.448,32.000 3.000,32.000 L10.000,32.000 C10.553,32.000 11.000,32.448 11.000,33.000 L11.000,40.149 L17.219,32.375 C17.231,32.361 17.248,32.355 17.261,32.341 C17.308,32.287 17.365,32.247 17.424,32.205 C17.472,32.170 17.516,32.132 17.568,32.107 C17.625,32.079 17.687,32.067 17.749,32.051 C17.815,32.033 17.877,32.015 17.945,32.011 C17.964,32.010 17.981,32.000 18.000,32.000 L45.000,32.000 C45.552,32.000 46.000,31.551 46.000,31.000 L46.000,3.000 ZM38.000,18.000 L10.000,18.000 C9.447,18.000 9.000,17.552 9.000,17.000 C9.000,16.448 9.447,16.000 10.000,16.000 L38.000,16.000 C38.553,16.000 39.000,16.448 39.000,17.000 C39.000,17.552 38.553,18.000 38.000,18.000 ZM38.000,12.000 L10.000,12.000 C9.447,12.000 9.000,11.552 9.000,11.000 C9.000,10.448 9.447,10.000 10.000,10.000 L38.000,10.000 C38.553,10.000 39.000,10.448 39.000,11.000 C39.000,11.552 38.553,12.000 38.000,12.000 ZM10.000,22.000 L28.000,22.000 C28.553,22.000 29.000,22.448 29.000,23.000 C29.000,23.552 28.553,24.000 28.000,24.000 L10.000,24.000 C9.447,24.000 9.000,23.552 9.000,23.000 C9.000,22.448 9.447,22.000 10.000,22.000 Z" class="cls-1"/>
</svg>
