<svg xmlns="http://www.w3.org/2000/svg" xmlns:xlink="http://www.w3.org/1999/xlink" preserveAspectRatio="xMidYMid" width="80" height="96" viewBox="0 0 40 48">
  <defs>
    <style>
      .cls-1 {
        fill: #1b1b1b;
        fill-rule: evenodd;
      }
    </style>
  </defs>
  <path d="M38.295,47.990 C37.924,47.990 37.549,47.875 37.183,47.647 L2.009,25.522 L2.009,47.000 C2.009,47.553 1.561,48.000 1.009,48.000 C0.457,48.000 0.010,47.553 0.010,47.000 L0.010,1.009 C0.010,0.457 0.457,0.010 1.009,0.010 C1.561,0.010 2.009,0.457 2.009,1.009 L2.009,21.045 L37.184,0.314 C37.541,0.105 37.902,-0.000 38.260,-0.000 C39.125,-0.000 40.000,0.680 40.000,1.981 L40.000,46.030 C40.000,47.377 39.116,47.990 38.295,47.990 ZM38.001,2.153 L2.178,23.266 L38.001,45.799 L38.001,2.153 Z" class="cls-1"/>
</svg>
