<svg xmlns="http://www.w3.org/2000/svg" xmlns:xlink="http://www.w3.org/1999/xlink" preserveAspectRatio="xMidYMid" width="96" height="96" viewBox="0 0 48 48">
  <defs>
    <style>
      .cls-1 {
        fill: #1b1b1b;
        fill-rule: evenodd;
      }
    </style>
  </defs>
  <path d="M46.624,22.841 L22.852,47.251 C22.365,47.737 21.728,48.000 21.050,48.000 C20.374,48.000 19.737,47.737 19.260,47.261 L0.740,28.738 C0.263,28.260 -0.000,27.625 -0.000,26.947 C-0.000,26.268 0.263,25.633 0.740,25.156 L25.169,1.367 C25.945,0.592 27.374,0.000 28.484,0.000 L45.467,0.000 C46.863,0.000 48.000,1.136 48.000,2.533 L48.000,19.517 C48.000,20.626 47.408,22.054 46.624,22.841 ZM46.000,2.533 C46.000,2.244 45.756,2.000 45.467,2.000 L28.484,2.000 C27.909,2.000 26.980,2.384 26.574,2.791 L2.145,26.579 C2.020,26.703 2.000,26.863 2.000,26.947 C2.000,27.030 2.020,27.190 2.154,27.323 L20.673,45.846 C20.807,45.980 20.967,46.000 21.050,46.000 C21.134,46.000 21.294,45.980 21.429,45.846 L45.199,21.436 C45.615,21.020 46.000,20.092 46.000,19.517 L46.000,2.533 ZM38.501,13.999 C36.020,13.999 34.001,11.981 34.001,9.499 C34.001,7.018 36.020,4.999 38.501,4.999 C40.983,4.999 43.001,7.018 43.001,9.499 C43.001,11.981 40.983,13.999 38.501,13.999 ZM38.501,6.999 C37.122,6.999 36.001,8.121 36.001,9.499 C36.001,10.878 37.122,11.999 38.501,11.999 C39.880,11.999 41.001,10.878 41.001,9.499 C41.001,8.121 39.880,6.999 38.501,6.999 Z" class="cls-1"/>
</svg>
