<svg xmlns="http://www.w3.org/2000/svg" xmlns:xlink="http://www.w3.org/1999/xlink" preserveAspectRatio="xMidYMid" width="76" height="96" viewBox="0 0 38 48">
  <defs>
    <style>
      .cls-1 {
        fill: #1b1b1b;
        fill-rule: evenodd;
      }
    </style>
  </defs>
  <path d="M37.000,10.000 L34.889,10.000 L30.610,46.124 C30.486,47.176 29.560,48.000 28.500,48.000 L9.500,48.000 C8.440,48.000 7.514,47.176 7.390,46.124 L3.111,10.000 L1.000,10.000 C0.447,10.000 -0.000,9.552 -0.000,9.000 C-0.000,8.448 0.447,8.000 1.000,8.000 L12.000,8.000 L12.000,3.000 C12.000,1.346 13.346,0.000 15.000,0.000 L23.000,0.000 C24.654,0.000 26.000,1.346 26.000,3.000 L26.000,8.000 L37.000,8.000 C37.553,8.000 38.000,8.448 38.000,9.000 C38.000,9.552 37.553,10.000 37.000,10.000 ZM24.000,3.000 C24.000,2.449 23.552,2.000 23.000,2.000 L15.000,2.000 C14.448,2.000 14.000,2.449 14.000,3.000 L14.000,8.000 L24.000,8.000 L24.000,3.000 ZM5.126,10.000 L9.376,45.889 C9.381,45.932 9.457,46.000 9.500,46.000 L28.500,46.000 C28.543,46.000 28.619,45.932 28.624,45.890 L32.874,10.000 L5.126,10.000 Z" class="cls-1"/>
</svg>
