<svg xmlns="http://www.w3.org/2000/svg" xmlns:xlink="http://www.w3.org/1999/xlink" preserveAspectRatio="xMidYMid" width="96" height="96" viewBox="0 0 48 48">
  <defs>
    <style>
      .cls-1 {
        fill: #1b1b1b;
        fill-rule: evenodd;
      }
    </style>
  </defs>
  <path d="M48.000,22.263 C48.000,23.555 46.906,25.000 45.442,25.000 L25.000,25.000 L25.000,40.810 C25.000,44.774 21.781,48.000 17.824,48.000 C13.934,48.000 11.000,44.991 11.000,41.000 C11.000,40.448 11.447,40.000 12.000,40.000 C12.553,40.000 13.000,40.448 13.000,41.000 C13.000,43.897 15.029,46.000 17.824,46.000 C20.678,46.000 23.000,43.671 23.000,40.810 L23.000,25.000 L2.558,25.000 C1.195,25.000 -0.000,23.744 -0.000,22.312 C-0.000,11.078 11.408,5.068 23.000,4.740 L23.000,1.000 C23.000,0.448 23.447,0.000 24.000,0.000 C24.553,0.000 25.000,0.448 25.000,1.000 L25.000,4.740 C36.592,5.067 48.000,11.060 48.000,22.263 ZM24.000,6.708 C13.067,6.708 2.000,12.068 2.000,22.312 C2.000,22.614 2.312,23.000 2.558,23.000 L45.442,23.000 C45.662,23.000 46.000,22.605 46.000,22.263 C46.000,12.051 34.933,6.708 24.000,6.708 Z" class="cls-1"/>
</svg>
