<svg xmlns="http://www.w3.org/2000/svg" xmlns:xlink="http://www.w3.org/1999/xlink" preserveAspectRatio="xMidYMid" width="95.376" height="95.5" viewBox="0 0 47.688 47.75">
  <defs>
    <style>
      .cls-1 {
        fill: #1b1b1b;
        fill-rule: evenodd;
      }
    </style>
  </defs>
  <path d="M46.954,31.254 C46.487,31.726 45.862,31.987 45.198,31.987 C44.535,31.987 43.910,31.726 43.441,31.254 C42.723,30.529 42.541,29.470 42.890,28.574 L38.202,23.847 C39.381,28.942 38.576,35.493 35.757,39.320 L37.459,41.036 C37.844,41.424 37.844,42.051 37.459,42.440 L32.493,47.449 C32.306,47.637 32.053,47.743 31.788,47.743 C31.524,47.743 31.270,47.637 31.084,47.449 L26.118,42.440 C25.733,42.051 25.733,41.424 26.118,41.036 L31.084,36.028 C31.457,35.653 32.120,35.653 32.493,36.028 L34.336,37.887 C37.552,33.180 37.540,23.584 34.254,19.901 L32.493,21.677 C32.306,21.865 32.053,21.971 31.788,21.971 C31.524,21.971 31.270,21.865 31.084,21.677 L26.118,16.668 C25.733,16.279 25.733,15.652 26.118,15.264 L27.888,13.479 C24.172,10.073 14.713,9.947 9.862,14.479 L11.634,16.266 C12.019,16.654 12.019,17.281 11.634,17.670 L6.668,22.679 C6.481,22.867 6.228,22.972 5.963,22.972 C5.699,22.972 5.445,22.867 5.259,22.679 L0.293,17.670 C-0.092,17.281 -0.092,16.654 0.293,16.266 L5.259,11.258 C5.632,10.882 6.295,10.882 6.668,11.258 L8.461,13.066 C12.429,9.322 18.930,8.339 23.970,9.495 L19.282,4.768 C18.998,4.879 18.694,4.942 18.380,4.942 C17.717,4.942 17.092,4.681 16.623,4.209 C15.656,3.234 15.657,1.651 16.622,0.680 C17.564,-0.265 19.200,-0.264 20.137,0.680 C20.856,1.402 21.039,2.463 20.688,3.360 L29.305,12.050 L31.084,10.256 C31.457,9.881 32.120,9.881 32.493,10.256 L37.459,15.264 C37.844,15.652 37.844,16.279 37.459,16.668 L35.672,18.471 L44.306,27.177 C45.197,26.849 46.266,27.029 46.955,27.725 C47.921,28.698 47.921,30.281 46.954,31.254 ZM31.788,38.142 L28.223,41.738 L31.788,45.334 L35.354,41.738 L31.788,38.142 ZM5.963,13.372 L2.398,16.968 L5.963,20.564 L9.529,16.968 L5.963,13.372 ZM31.788,12.370 L28.223,15.966 L31.788,19.562 L35.354,15.966 L31.788,12.370 Z" class="cls-1"/>
</svg>
