<svg xmlns="http://www.w3.org/2000/svg" xmlns:xlink="http://www.w3.org/1999/xlink" preserveAspectRatio="xMidYMid" width="96.75" height="96.814" viewBox="0 0 48.375 48.407">
  <defs>
    <style>
      .cls-1 {
        fill: #1b1b1b;
        fill-rule: evenodd;
      }
    </style>
  </defs>
  <path d="M44.252,24.096 C41.526,26.826 37.938,28.251 34.295,28.251 C32.299,28.251 30.292,27.796 28.394,26.920 L11.411,46.397 C11.404,46.405 11.393,46.408 11.385,46.416 C11.377,46.426 11.374,46.438 11.365,46.447 C10.067,47.746 8.361,48.395 6.656,48.395 C4.951,48.395 3.245,47.746 1.947,46.447 C0.689,45.190 -0.003,43.517 -0.003,41.736 C-0.003,39.957 0.690,38.284 1.947,37.026 C1.955,37.018 1.967,37.015 1.976,37.007 C1.984,37.000 1.987,36.989 1.996,36.981 L21.430,19.953 C18.989,14.604 20.089,8.339 24.295,4.132 C27.624,0.804 31.947,-0.588 36.467,0.218 C36.832,0.283 37.133,0.544 37.248,0.896 C37.364,1.249 37.276,1.637 37.020,1.906 L31.452,7.750 L33.041,12.519 C33.484,13.849 34.542,14.907 35.870,15.349 L40.620,16.932 L46.462,11.087 C46.728,10.821 47.119,10.725 47.477,10.838 C47.835,10.950 48.101,11.253 48.167,11.623 C48.980,16.172 47.517,20.835 44.252,24.096 ZM41.605,18.799 C41.334,19.069 40.936,19.165 40.573,19.043 L35.233,17.262 C33.306,16.621 31.771,15.086 31.128,13.157 L29.348,7.812 C29.230,7.458 29.318,7.068 29.575,6.798 L34.131,2.015 C34.088,2.014 34.045,2.014 34.001,2.014 C30.927,2.014 28.044,3.235 25.721,5.558 C21.952,9.328 21.083,15.027 23.559,19.741 C23.572,19.766 23.571,19.793 23.582,19.819 C23.610,19.884 23.627,19.948 23.640,20.016 C23.652,20.079 23.663,20.138 23.663,20.201 C23.664,20.266 23.654,20.327 23.642,20.391 C23.630,20.455 23.617,20.515 23.594,20.575 C23.571,20.634 23.539,20.686 23.505,20.740 C23.468,20.798 23.430,20.852 23.381,20.902 C23.361,20.923 23.352,20.949 23.331,20.968 L3.365,38.461 C2.494,39.337 2.013,40.500 2.013,41.736 C2.013,42.978 2.496,44.145 3.373,45.021 C5.180,46.828 8.118,46.830 9.929,45.029 L27.367,25.030 C27.387,25.007 27.414,24.998 27.435,24.978 C27.486,24.928 27.540,24.889 27.598,24.852 C27.652,24.819 27.703,24.788 27.760,24.766 C27.823,24.741 27.885,24.727 27.951,24.715 C28.012,24.704 28.071,24.696 28.133,24.696 C28.198,24.696 28.260,24.707 28.325,24.720 C28.391,24.733 28.454,24.750 28.517,24.777 C28.545,24.789 28.574,24.788 28.600,24.802 C33.325,27.317 39.043,26.459 42.827,22.669 C45.135,20.364 46.392,17.242 46.372,14.030 L41.605,18.799 Z" class="cls-1"/>
</svg>
